<?xml version="1.0" encoding="UTF-8" standalone="no"?>
<svg width="512px" height="512px" viewBox="0 0 512 512" version="1.1" xmlns="http://www.w3.org/2000/svg" xmlns:xlink="http://www.w3.org/1999/xlink">
    <!-- Generator: Sketch 48.2 (47327) - http://www.bohemiancoding.com/sketch -->
    <title>camera</title>
    <desc>Created with Sketch.</desc>
    <defs></defs>
    <g id="Page-1" stroke="none" stroke-width="1" fill="none" fill-rule="evenodd">
        <g id="camera" fill-rule="nonzero">
            <circle id="Oval" fill="#4D4D4D" cx="256" cy="256" r="256"></circle>
            <path d="M291.525,509.535 C404.534,493.844 493.936,404.396 509.558,291.366 L386.918,168.726 L385.254,175.799 L351.677,142.222 L321.509,214.626 L123.323,341.333 L291.525,509.535 Z" id="Shape" fill="#333333"></path>
            <rect id="Rectangle-path" fill="#DC755E" x="294.788" y="142.222" width="56.889" height="28.444"></rect>
            <path d="M357.998,355.556 L154.003,355.556 C131.787,355.556 113.777,337.546 113.777,315.332 L113.777,196.67 C113.777,174.454 131.787,156.444 154.003,156.444 L357.998,156.444 C380.214,156.444 398.222,174.454 398.222,196.67 L398.222,315.332 C398.222,337.546 380.213,355.556 357.998,355.556 Z" id="Shape" fill="#F8F9F9"></path>
            <path d="M357.998,156.444 L255.426,156.444 L255.426,355.555 L357.998,355.555 C380.214,355.555 398.222,337.545 398.222,315.331 L398.222,196.67 C398.222,174.454 380.213,156.444 357.998,156.444 Z" id="Shape" fill="#DFE5E1"></path>
            <rect id="Rectangle-path" fill="#DC755E" x="113.778" y="199.111" width="284.444" height="113.778"></rect>
            <g id="Group" transform="translate(170.000000, 171.000000)" fill="#4D4D4D">
                <circle id="Oval" cx="86.074" cy="86" r="85.333"></circle>
            </g>
            <path d="M255.574,172 C255.381,172 255.193,172.014 255,172.014 L255,342.651 C255.193,342.651 255.381,342.665 255.574,342.665 C302.702,342.665 340.907,304.46 340.907,257.332 C340.907,210.204 302.702,172 255.574,172 Z" id="Shape" fill="#333333"></path>
            <circle id="Oval" fill="#F8F9F9" cx="255.061" cy="256.061" r="62.061"></circle>
            <path d="M255.574,194 C255.381,194 255.191,194.012 255,194.014 L255,318.106 C255.191,318.108 255.381,318.12 255.574,318.12 C289.849,318.12 317.635,290.334 317.635,256.059 C317.635,221.784 289.849,194 255.574,194 Z" id="Shape" fill="#DFE5E1"></path>
            <rect id="Rectangle-path" fill="#D5573B" x="369.778" y="227.556" width="28.444" height="56.889"></rect>
        </g>
    </g>
</svg>