<?xml version="1.0" encoding="UTF-8" standalone="no"?>
<svg width="512px" height="512px" viewBox="0 0 512 512" version="1.1" xmlns="http://www.w3.org/2000/svg" xmlns:xlink="http://www.w3.org/1999/xlink">
    <!-- Generator: Sketch 48.2 (47327) - http://www.bohemiancoding.com/sketch -->
    <title>check2</title>
    <desc>Created with Sketch.</desc>
    <defs></defs>
    <g id="Page-1" stroke="none" stroke-width="1" fill="none" fill-rule="evenodd">
        <g id="check2" fill-rule="nonzero">
            <circle id="Oval" fill="#4D4D4D" cx="256" cy="256" r="256"></circle>
            <path d="M150.354,361.6 L297.403,508.649 C405.594,491.053 491.011,405.654 508.638,297.472 L361.605,150.438 L150.354,361.6 Z" id="Shape" fill="#333333"></path>
            <path d="M169.948,369.778 L342.05,369.778 C357.363,369.778 369.776,357.364 369.776,342.052 L369.776,169.95 C369.776,154.637 357.362,142.223 342.05,142.223 L169.948,142.223 C154.635,142.223 142.221,154.637 142.221,169.95 L142.221,342.053 C142.222,357.364 154.636,369.778 169.948,369.778 Z" id="Shape" fill="#F8F9F9" transform="translate(255.998500, 256.000500) rotate(-90.000000) translate(-255.998500, -256.000500) "></path>
            <path d="M199.112,198.888 L199.112,284.94 C199.112,300.253 211.526,312.666 226.838,312.666 L398.94,312.666 C414.253,312.666 426.666,300.252 426.666,284.94 L426.666,198.888 L199.112,198.888 Z" id="Shape" fill="#DFE5E1" transform="translate(312.889000, 255.777000) rotate(-90.000000) translate(-312.889000, -255.777000) "></path>
            <path d="M233.32325,301.48625 C230.89725,301.48625 228.47025,300.56025 226.61925,298.70925 L203.77725,275.86725 C200.07425,272.16625 200.07425,266.16125 203.77725,262.46025 C207.47625,258.75725 213.48425,258.75725 217.18425,262.46025 L233.32125,278.59625 L295.14225,216.77725 C298.84125,213.07425 304.84925,213.07425 308.54925,216.77725 C312.25225,220.47825 312.25225,226.48325 308.54925,230.18425 L240.02425,298.70925 C238.17625,300.56125 235.74925,301.48625 233.32325,301.48625 Z" id="Shape" stroke="#4D4D4D" stroke-width="5" fill="#4D4D4D"></path>
            <path d="M308.386,216.77725 C304.687,213.07425 298.679,213.07425 294.979,216.77725 L256,255.75525 L256,282.57025 L308.386,230.18425 C312.089,226.48325 312.089,220.48025 308.386,216.77725 Z" id="Shape" stroke="#333333" stroke-width="5" fill="#333333"></path>
        </g>
    </g>
</svg>