<?xml version="1.0" encoding="UTF-8" standalone="no"?>
<svg width="512px" height="512px" viewBox="0 0 512 512" version="1.1" xmlns="http://www.w3.org/2000/svg" xmlns:xlink="http://www.w3.org/1999/xlink">
    <!-- Generator: Sketch 48.2 (47327) - http://www.bohemiancoding.com/sketch -->
    <title>check</title>
    <desc>Created with Sketch.</desc>
    <defs></defs>
    <g id="Page-1" stroke="none" stroke-width="1" fill="none" fill-rule="evenodd">
        <g id="check" fill-rule="nonzero">
            <circle id="Oval" fill="#4D4D4D" cx="256" cy="256" r="256"></circle>
            <path d="M287.546,510.064 C406.25,495.475 499.802,399.636 510.881,279.88 L369.778,138.774 L363.56,148.071 L335.3,119.811 L295.974,184.133 L322.019,210.178 L311.741,225.543 L314.961,228.763 L309.484,233.2 L196.094,119.81 L174.545,159.317 L275.758,260.53 L144.424,366.942 L287.546,510.064 Z" id="Shape" fill="#333333"></path>
            <path d="M150.769,369.778 L361.229,369.778 C365.951,369.778 369.776,365.951 369.776,361.231 L369.776,199.111 L142.22,199.111 L142.22,361.231 C142.222,365.951 146.049,369.778 150.769,369.778 Z" id="Shape" fill="#F8F9F9"></path>
            <g id="Group" transform="translate(142.000000, 138.000000)" fill="#DFE5E1">
                <path d="M114,61.111 L114,231.778 L219.229,231.778 C223.951,231.778 227.776,227.951 227.776,223.231 L227.776,61.111 L114,61.111 Z" id="Shape"></path>
                <rect id="Rectangle-path" x="0.222" y="0.774" width="227.556" height="63.785"></rect>
            </g>
            <rect id="Rectangle-path" fill="#CBD1CD" x="256" y="138.774" width="113.778" height="63.785"></rect>
            <rect id="Rectangle-path" fill="#DC755E" x="173.684" y="119.811" width="22.411" height="44.822"></rect>
            <rect id="Rectangle-path" fill="#D5573B" x="312.889" y="119.811" width="22.411" height="44.822"></rect>
            <path d="M233.158,313.966 C230.732,313.966 228.305,313.04 226.454,311.189 L203.612,288.347 C199.909,284.646 199.909,278.641 203.612,274.94 C207.311,271.237 213.319,271.237 217.019,274.94 L233.156,291.076 L294.977,229.257 C298.676,225.554 304.684,225.554 308.384,229.257 C312.087,232.958 312.087,238.963 308.384,242.664 L239.859,311.189 C238.011,313.041 235.584,313.966 233.158,313.966 Z" id="Shape" fill="#4D4D4D"></path>
            <path d="M308.388,229.255 C304.689,225.552 298.681,225.552 294.981,229.255 L256.002,268.233 L256.002,295.048 L308.388,242.662 C312.091,238.961 312.091,232.958 308.388,229.255 Z" id="Shape" fill="#333333"></path>
        </g>
    </g>
</svg>