<?xml version="1.0" encoding="UTF-8" standalone="no"?>
<svg width="512px" height="512px" viewBox="0 0 512 512" version="1.1" xmlns="http://www.w3.org/2000/svg" xmlns:xlink="http://www.w3.org/1999/xlink">
    <!-- Generator: Sketch 48.2 (47327) - http://www.bohemiancoding.com/sketch -->
    <title>close-block</title>
    <desc>Created with Sketch.</desc>
    <defs></defs>
    <g id="Page-1" stroke="none" stroke-width="1" fill="none" fill-rule="evenodd">
        <g id="close-block" fill-rule="nonzero">
            <circle id="Oval" fill="#4D4D4D" cx="256" cy="256" r="256"></circle>
            <path d="M150.354,361.6 L297.403,508.649 C405.594,491.053 491.011,405.654 508.638,297.472 L361.605,150.438 L150.354,361.6 Z" id="Shape" fill="#333333"></path>
            <path d="M169.948,369.778 L342.05,369.778 C357.363,369.778 369.776,357.364 369.776,342.052 L369.776,169.95 C369.776,154.637 357.362,142.223 342.05,142.223 L169.948,142.223 C154.635,142.223 142.221,154.637 142.221,169.95 L142.221,342.053 C142.222,357.364 154.636,369.778 169.948,369.778 Z" id="Shape" fill="#F8F9F9"></path>
            <path d="M142.222,256 L142.222,342.052 C142.222,357.365 154.636,369.778 169.948,369.778 L342.05,369.778 C357.363,369.778 369.776,357.364 369.776,342.052 L369.776,256 L142.222,256 Z" id="Shape" fill="#DFE5E1"></path>
            <path d="M295.36225,260.91625 L245.52925,310.74925 C239.49025,316.78825 239.49025,326.58025 245.52925,332.61825 C251.56825,338.65725 261.36025,338.65725 267.39825,332.61825 L333.00825,267.00825 C339.04725,260.96925 339.04725,251.17725 333.00825,245.13925 L267.39825,179.52925 C261.35925,173.49025 251.56725,173.49025 245.52925,179.52925 C239.49025,185.56825 239.49025,195.36025 245.52925,201.39825 L295.36225,251.23125 C298.03625,253.90525 298.03625,258.24325 295.36225,260.91625 Z" id="Shape" fill="#4D4D4D" transform="translate(289.268750, 256.073750) scale(-1, 1) translate(-289.268750, -256.073750) "></path>
            <path d="M229.36225,260.91625 L179.52925,310.74925 C173.49025,316.78825 173.49025,326.58025 179.52925,332.61825 C185.56825,338.65725 195.36025,338.65725 201.39825,332.61825 L267.00825,267.00825 C273.04725,260.96925 273.04725,251.17725 267.00825,245.13925 L201.39825,179.52925 C195.35925,173.49025 185.56725,173.49025 179.52925,179.52925 C173.49025,185.56825 173.49025,195.36025 179.52925,201.39825 L229.36225,251.23125 C232.03625,253.90525 232.03625,258.24325 229.36225,260.91625 Z" id="Shape" fill="#4D4D4D"></path>
            <path d="M229.36225,260.843 L179.52925,310.676 C173.49025,316.715 173.49025,326.507 179.52925,332.545 C185.56825,338.584 195.36025,338.584 201.39825,332.545 L267.00825,266.935 C270.02825,263.915 271.53725,259.958 271.53725,256 L231.36725,256 C231.36925,257.754 230.70025,259.506 229.36225,260.843 Z" id="Shape" fill="#333333"></path>
            <path d="M295.36225,260.843 L245.52925,310.676 C239.49025,316.715 239.49025,326.507 245.52925,332.545 C251.56825,338.584 261.36025,338.584 267.39825,332.545 L333.00825,266.935 C336.02825,263.915 337.53725,259.958 337.53725,256 L297.36725,256 C297.36925,257.754 296.70025,259.506 295.36225,260.843 Z" id="Shape" fill="#333333" transform="translate(289.268625, 296.537125) scale(-1, 1) translate(-289.268625, -296.537125) "></path>
        </g>
    </g>
</svg>