<?xml version="1.0" encoding="UTF-8" standalone="no"?>
<svg width="512px" height="512px" viewBox="0 0 512 512" version="1.1" xmlns="http://www.w3.org/2000/svg" xmlns:xlink="http://www.w3.org/1999/xlink">
    <!-- Generator: Sketch 48.2 (47327) - http://www.bohemiancoding.com/sketch -->
    <title>dices</title>
    <desc>Created with Sketch.</desc>
    <defs></defs>
    <g id="Page-1" stroke="none" stroke-width="1" fill="none" fill-rule="evenodd">
        <g id="dices" fill-rule="nonzero">
            <circle id="Oval" fill="#4D4D4D" cx="256" cy="256" r="256"></circle>
            <g id="Group" transform="translate(97.000000, 180.000000)" fill="#333333">
                <path d="M356.315,239.108 L167.346,50.654 L0.166,217.834 L109.541,327.209 C125.546,330.341 142.078,332 159,332 C238.403,332 309.359,295.848 356.315,239.108 Z" id="Shape"></path>
                <path d="M357.654,237.459 C393.5,193.409 415,137.219 415,76 C415,69.852 414.77,63.759 414.343,57.72 L357.473,0.85 L239.259,119.064 L357.654,237.459 Z" id="Shape"></path>
            </g>
            <rect id="Rectangle-path" fill="#F8F9F9" x="97.17" y="230.65" width="167.18" height="167.18"></rect>
            <rect id="Rectangle-path" fill="#DFE5E1" x="180.76" y="230.65" width="83.59" height="167.18"></rect>
            <circle id="Oval" fill="#4D4D4D" cx="136.62" cy="270.11" r="23.18"></circle>
            <g id="Group" transform="translate(201.000000, 246.000000)" fill="#333333">
                <circle id="Oval" cx="23.89" cy="112.38" r="23.18"></circle>
                <circle id="Oval" cx="23.89" cy="24.11" r="23.18"></circle>
            </g>
            <g id="Group" transform="translate(113.000000, 291.000000)" fill="#4D4D4D">
                <circle id="Oval" cx="23.62" cy="67.38" r="23.18"></circle>
                <circle id="Oval" cx="67.76" cy="23.24" r="23.18"></circle>
            </g>
            <path d="M180.757,291.066 C193.558,291.066 203.935,301.443 203.935,314.244 C203.935,327.045 193.558,337.422 180.757,337.422 L180.757,291.066 Z" id="Shape" fill="#333333"></path>
            <rect id="Rectangle-path" fill="#F8F9F9" transform="translate(336.260654, 180.848590) rotate(135.000000) translate(-336.260654, -180.848590) " x="252.672456" y="97.2603913" width="167.176397" height="167.176397"></rect>
            <polygon id="Shape" fill="#DFE5E1" points="336.259 62.636 454.473 180.85 336.259 299.064"></polygon>
            <circle id="Oval" fill="#4D4D4D" cx="273.84" cy="180.85" r="23.18"></circle>
            <circle id="Oval" fill="#333333" cx="398.68" cy="180.85" r="23.18"></circle>
            <circle id="Oval" fill="#4D4D4D" cx="336.26" cy="118.43" r="23.18"></circle>
            <path d="M336.259,95.257 C349.06,95.257 359.436,105.634 359.436,118.435 C359.436,131.236 349.058,141.613 336.258,141.613 L336.259,95.257 Z" id="Shape" fill="#333333"></path>
            <circle id="Oval" fill="#4D4D4D" cx="336.26" cy="243.27" r="23.18"></circle>
            <path d="M336.259,220.089 C349.06,220.089 359.437,230.466 359.437,243.267 C359.437,256.068 349.059,266.445 336.258,266.445 L336.259,220.089 Z" id="Shape" fill="#333333"></path>
        </g>
    </g>
</svg>