<?xml version="1.0" encoding="UTF-8" standalone="no"?>
<svg width="512px" height="512px" viewBox="0 0 512 512" version="1.1" xmlns="http://www.w3.org/2000/svg" xmlns:xlink="http://www.w3.org/1999/xlink">
    <!-- Generator: Sketch 48.2 (47327) - http://www.bohemiancoding.com/sketch -->
    <title>download</title>
    <desc>Created with Sketch.</desc>
    <defs></defs>
    <g id="Page-1" stroke="none" stroke-width="1" fill="none" fill-rule="evenodd">
        <g id="download" fill-rule="nonzero">
            <circle id="Oval" fill="#4D4D4D" cx="256" cy="256" r="256"></circle>
            <path d="M501.912,327.349 L404.498,229.935 L400.711,237.698 L328.097,165.084 L214.34,256.286 L113.698,322.431 L299.558,508.29 C396.585,491.658 474.952,420.43 501.912,327.349 Z" id="Shape" fill="#333333"></path>
            <path d="M348.522,349.715 C388.825,349.715 421.497,317.044 421.497,276.74 C421.497,236.437 388.826,203.765 348.522,203.765 C347.962,203.765 347.41,203.794 346.852,203.808 C339,164.401 304.23,134.7 262.517,134.7 C230.383,134.7 202.385,152.334 187.622,178.441 C183.983,177.97 180.28,177.703 176.511,177.703 C129.012,177.703 90.505,216.208 90.505,263.709 C90.505,311.21 129.01,349.715 176.511,349.715 L348.522,349.715 Z" id="Shape" fill="#F8F9F9"></path>
            <path d="M348.522,203.767 C347.962,203.767 347.41,203.796 346.852,203.81 C339,164.403 304.23,134.702 262.517,134.702 C260.129,134.702 257.766,134.811 255.427,135.002 L255.427,349.714 L348.521,349.714 C388.824,349.714 421.496,317.043 421.496,276.739 C421.495,236.437 388.823,203.767 348.522,203.767 Z" id="Shape" fill="#DFE5E1"></path>
            <polygon id="Shape" fill="#4D4D4D" points="281.762 267.969 281.762 183.661 230.24 183.661 230.24 267.969 204.479 267.969 256 319.491 307.522 267.969"></polygon>
            <polygon id="Shape" fill="#333333" points="307.522 267.969 281.762 267.969 281.762 183.661 255.426 183.661 255.426 318.917 256 319.491"></polygon>
        </g>
    </g>
</svg>