<?xml version="1.0" encoding="UTF-8" standalone="no"?>
<svg width="512px" height="512px" viewBox="0 0 512 512" version="1.1" xmlns="http://www.w3.org/2000/svg" xmlns:xlink="http://www.w3.org/1999/xlink">
    <!-- Generator: Sketch 48.2 (47327) - http://www.bohemiancoding.com/sketch -->
    <title>e-mail2</title>
    <desc>Created with Sketch.</desc>
    <defs></defs>
    <g id="Page-1" stroke="none" stroke-width="1" fill="none" fill-rule="evenodd">
        <g id="e-mail2" fill-rule="nonzero">
            <circle id="Oval" fill="#4D4D4D" cx="256" cy="256" r="256"></circle>
            <path d="M150.354,361.6 L297.403,508.649 C405.594,491.053 491.011,405.654 508.638,297.472 L361.605,150.438 L150.354,361.6 Z" id="Shape" fill="#333333"></path>
            <path d="M258.702236,109.039935 C283.018479,111.219598 300.942454,114.460081 312.474161,118.761383 C329.977973,125.299446 345.471169,134.838759 358.957918,147.385623 C372.438416,159.934588 383.135305,175.489003 391.048587,194.046769 C398.955617,212.610835 402.912258,234.041736 402.912258,258.352073 C402.912258,262.0149 402.718489,266.916872 402.328867,273.055889 C401.939245,279.201206 401.095412,285.672061 399.799451,292.466354 C398.499322,299.266947 396.553297,306.191456 393.963458,313.248279 C391.369452,320.305103 387.867022,326.715051 383.460337,332.461321 C379.047402,338.213892 373.540608,342.853334 366.929538,346.379645 C360.316385,349.910157 352.342681,351.674363 343.006342,351.674363 C336.003568,351.674363 330.230081,350.695649 325.6963,348.73402 C321.156268,346.772391 317.526743,344.224794 314.803557,341.089128 C312.080372,337.953462 310.069757,334.490158 308.773795,330.697115 C307.471583,326.910373 306.567328,323.184539 306.05061,319.521711 C298.010233,327.628657 288.284272,334.097412 276.876896,338.932176 C265.463269,343.771141 253.149553,346.186423 239.923246,346.186423 C220.473409,346.186423 205.692783,341.089128 195.579284,330.892438 C185.465786,320.697848 180.409036,307.502008 180.409036,291.290217 C180.409036,280.574766 182.548831,271.556314 186.826337,264.234859 C191.103842,256.919706 196.677309,251.039019 203.552988,246.5886 C210.422417,242.146582 218.200268,238.941608 226.892793,236.982079 C235.576984,235.02045 244.329932,234.041736 253.147469,234.041736 C263.517243,234.041736 272.46396,235.02045 279.987619,236.982079 C287.505028,238.943708 293.211842,240.84233 297.101809,242.667442 C297.101809,235.610619 296.451745,229.078857 295.155784,223.063755 C293.855656,217.052853 291.520008,211.955559 288.153009,207.76977 C284.779759,203.594483 280.239728,200.320201 274.539165,197.970026 C268.832351,195.615652 261.569134,194.439514 252.755764,194.439514 C242.119297,194.439514 232.39542,196.008398 223.582049,199.146164 C220.119788,200.377112 215.85508,201.767058 210.787925,203.316003 L210.787933,203.316027 C204.220588,205.323555 197.237855,201.798732 194.952953,195.322668 L194.952953,195.322668 C192.636618,188.757513 195.819553,181.522298 202.224384,178.793781 C224.986485,169.096923 243.515861,164.248491 257.812513,164.248491 C274.666261,164.248491 287.825893,166.863296 297.293495,172.090806 C306.75693,177.322517 313.757621,183.921487 318.299736,191.891917 C322.833517,199.868648 325.623376,208.691778 326.663062,218.359206 C327.696497,228.032935 328.219466,237.313918 328.219466,246.200055 L328.219466,283.840647 C328.219466,289.595319 328.413235,295.152567 328.802857,300.506092 C329.192478,305.868018 330.030061,310.570467 331.332273,314.621839 C332.626151,318.677413 334.572176,321.943294 337.168266,324.425783 C339.756022,326.912474 343.391797,328.149518 348.058925,328.149518 C355.059616,328.149518 360.699756,325.538913 364.979346,320.307203 C369.256851,315.079693 372.625934,308.741153 375.092844,301.289483 C377.555588,293.839914 379.176581,286.064807 379.955825,277.962061 C380.735068,269.861416 381.122606,263.060822 381.122606,257.570782 C381.122606,239.277647 378.072305,222.349671 371.98212,206.793156 C365.885685,191.245042 357.395263,177.77827 346.504605,166.407543 C335.611862,155.034716 322.514736,146.15278 307.215308,139.742832 C291.911714,133.339184 274.928787,130.13631 256.258193,130.13631 C237.841791,130.13631 221.054717,133.271976 205.884469,139.545408 C190.71422,145.818841 177.617094,154.511755 166.597256,165.622052 C155.571167,176.734448 147.014072,189.932388 140.923887,205.224273 C134.827452,220.518258 131.783401,237.181602 131.783401,255.218507 C131.783401,272.734551 134.633683,289.135365 140.340496,304.42935 C146.041059,319.721234 154.150193,333.05149 164.653314,344.424317 C175.156434,355.795044 187.797266,364.813497 202.579976,371.479674 C217.360602,378.143752 233.824728,381.476841 251.980687,381.476841 C264.42775,381.476841 275.185062,380.105381 284.267209,377.35826 C288.662804,376.029517 294.862229,373.768525 302.865484,370.575283 L302.865479,370.575269 C307.855842,368.58415 313.515452,371.015517 315.506571,376.00588 C315.606826,376.25715 315.696557,376.512493 315.775528,376.771242 L316.207833,378.187669 C317.723682,383.154318 315.185768,388.454791 310.366209,390.387989 C308.809709,391.012325 307.982618,391.34332 307.884935,391.380975 C298.49437,395.00086 291.010722,397.449953 285.433991,398.728254 C274.01828,401.338859 262.610904,402.649412 251.203527,402.649412 C231.75369,402.649412 213.470634,399.121 196.356444,392.064177 C179.240171,385.007353 164.265775,375.005986 151.427008,362.066376 C138.592407,349.126766 128.476825,333.578652 121.086511,315.407331 C113.696198,297.240211 110,277.17657 110,255.218507 C110,231.954092 114.017063,211.241475 122.057441,193.070155 C130.093651,174.905135 140.923887,159.61115 154.537731,147.194501 C168.151576,134.782053 183.905215,125.305747 201.798648,118.765584 C213.593432,114.460173 231.973771,111.217611 256.939666,109.037897 L256.939666,109.037897 C257.526104,108.986696 258.115918,108.987378 258.702236,109.039935 Z M276.878979,311.28665 C283.881754,307.892654 288.938503,303.706866 292.049227,298.737686 C295.159951,293.776907 296.716355,288.284766 296.716355,282.269664 L296.716355,267.368425 C293.080579,266.062073 287.380016,264.365075 279.602165,262.27113 C271.82223,260.181386 263.002609,259.135464 253.149553,259.135464 C240.956682,259.135464 230.978613,261.487739 223.198678,266.192288 C215.418743,270.898937 211.528776,278.873568 211.528776,290.111979 C211.528776,299.000216 214.312384,306.05914 219.892102,311.28455 C225.465569,316.51626 233.17883,319.126865 243.038137,319.126865 C248.221983,319.126865 253.928796,318.475789 260.154411,317.165236 C266.377942,315.863084 271.951409,313.901455 276.878979,311.28665 Z" id="Shape" fill="#F8F9F9"></path>
            <path d="M390.632264,194.103457 C382.71272,175.532374 372.000493,159.986445 358.516426,147.423654 C345.032358,134.881871 329.547564,125.344233 312.02036,118.789734 C294.513998,112.256242 276.299044,109 257.354659,109 C256.896159,109 256.4585,109 256,109.021008 L256,130.176076 C274.59009,130.197084 291.512907,133.390302 306.768451,139.776738 C322.086519,146.184182 335.174609,155.070571 346.074404,166.456913 C356.974198,177.822248 365.456448,191.288384 371.562834,206.855321 C377.648379,222.40125 380.711992,239.333707 380.711992,257.631686 C380.711992,263.135785 380.316015,269.942381 379.544902,278.030466 C379.50322,278.492642 379.461538,278.954818 379.399015,279.395987 C378.565379,287.021895 376.98147,294.332683 374.668129,301.370367 C372.208902,308.828212 368.832675,315.172631 364.560289,320.403626 C360.267062,325.634621 354.640017,328.239615 347.637472,328.239615 C342.969108,328.239615 339.321949,327.000142 336.737677,324.521197 C334.132563,322.021243 332.194359,318.765001 330.902223,314.710455 C329.589245,310.655909 328.755609,305.950114 328.380473,300.593071 C327.984496,295.236028 327.796927,289.668905 327.796927,283.912709 L327.796927,246.266351 C327.796927,237.379962 327.255064,228.094421 326.233859,218.409727 C325.191814,208.746042 322.399132,199.922677 317.855814,191.939632 C313.333337,183.977595 306.309951,177.38108 296.848179,172.129077 C287.386407,166.91909 274.214953,164.293088 257.354659,164.293088 C256.896159,164.293088 256.437659,164.293088 256,164.314096 L256,194.586642 C263.169272,194.859746 269.192295,196.015186 274.089908,198.031956 C279.800317,200.384853 284.343635,203.641095 287.719862,207.821689 C291.075248,212.023292 293.40943,217.107231 294.722407,223.115522 C296.014543,229.144822 296.660611,235.678313 296.660611,242.737005 C292.763361,240.909308 287.052953,239.018587 279.550226,237.043834 C272.818613,235.300169 264.982431,234.333801 256,234.144728 L256,259.249303 C264.523931,259.459383 272.235067,260.488776 279.154249,262.337481 C286.927907,264.438282 292.638316,266.139931 296.264634,267.442428 L296.264634,282.358116 C296.264634,288.366408 294.722407,293.849499 291.596271,298.828398 C288.490975,303.786289 283.426635,307.987891 276.42409,311.370181 C271.505635,313.996183 265.920272,315.949928 259.688841,317.252424 C258.438386,317.525529 257.208773,317.756617 256,317.966697 L256,344.940985 C263.085909,343.764536 269.900886,341.789783 276.42409,339.016725 C287.844907,334.184882 297.55677,327.714415 305.601361,319.605322 C306.122383,323.281724 307.039383,327.000142 308.33152,330.781584 C309.623656,334.584035 311.645224,338.050357 314.354542,341.18055 C317.084701,344.310744 320.711019,346.873722 325.254337,348.827467 C329.797655,350.781212 335.570586,351.768588 342.573131,351.768588 C351.909858,351.768588 359.891925,350.003915 366.498493,346.474569 C373.125902,342.945223 378.627902,338.302453 383.046174,332.546257 C387.443606,326.81107 390.944878,320.403626 393.549992,313.323926 C396.134264,306.265234 398.072469,299.353598 399.385446,292.547002 C400.239923,288.009272 400.906832,283.639605 401.365332,279.395987 C401.594582,277.274177 401.78215,275.194384 401.907196,273.135599 C402.303173,266.980251 402.490741,262.085385 402.490741,258.42999 C402.490741,234.102712 398.530969,212.67454 390.632264,194.103457 Z M283.822612,377.461387 C275.840544,379.877309 266.587181,381.221821 256,381.515934 L256,402.649994 C265.670181,402.313866 275.319522,401.053385 284.989703,398.826536 C291.036404,397.444812 299.330234,394.680063 309.871193,390.53229 L309.871192,390.532286 C314.724467,388.622566 317.295055,383.303563 315.775998,378.314197 L315.334065,376.862659 C313.77006,371.725663 308.337827,368.829182 303.200831,370.393186 C302.939565,370.472731 302.681766,370.563248 302.42812,370.664498 C294.417135,373.862292 288.2153,376.127925 283.822612,377.461387 Z" id="Shape" fill="#DFE5E1"></path>
        </g>
    </g>
</svg>