<?xml version="1.0" encoding="UTF-8" standalone="no"?>
<svg width="512px" height="512px" viewBox="0 0 512 512" version="1.1" xmlns="http://www.w3.org/2000/svg" xmlns:xlink="http://www.w3.org/1999/xlink">
    <!-- Generator: Sketch 48.2 (47327) - http://www.bohemiancoding.com/sketch -->
    <title>e-mail</title>
    <desc>Created with Sketch.</desc>
    <defs></defs>
    <g id="Page-1" stroke="none" stroke-width="1" fill="none" fill-rule="evenodd">
        <g id="e-mail" fill-rule="nonzero">
            <circle id="Oval" fill="#4D4D4D" cx="256" cy="256" r="256"></circle>
            <path d="M150.354,361.6 L297.403,508.649 C405.594,491.053 491.011,405.654 508.638,297.472 L361.605,150.438 L150.354,361.6 Z" id="Shape" fill="#333333"></path>
            <path d="M169.948,369.778 L342.05,369.778 C357.363,369.778 369.776,357.364 369.776,342.052 L369.776,169.95 C369.776,154.637 357.362,142.223 342.05,142.223 L169.948,142.223 C154.635,142.223 142.221,154.637 142.221,169.95 L142.221,342.053 C142.222,357.364 154.636,369.778 169.948,369.778 Z" id="Shape" fill="#F8F9F9"></path>
            <path d="M199.112,198.888 L199.112,284.94 C199.112,300.253 211.526,312.666 226.838,312.666 L398.94,312.666 C414.253,312.666 426.666,300.252 426.666,284.94 L426.666,198.888 L199.112,198.888 Z" id="Shape" fill="#DFE5E1" transform="translate(312.889000, 255.777000) scale(-1, 1) rotate(90.000000) translate(-312.889000, -255.777000) "></path>
            <path d="M257.746653,168.035616 C272.178775,169.345424 282.831945,171.282362 289.706163,173.846431 C300.227613,177.776426 309.540493,183.510458 317.647307,191.052313 C325.750364,198.59543 332.180209,207.945108 336.936841,219.100084 C341.689716,230.258847 344.068032,243.14085 344.068032,257.753667 C344.068032,259.955374 343.951559,262.901924 343.717359,266.592054 C343.48316,270.285972 342.975936,274.17557 342.19694,278.259584 C341.41544,282.347385 340.245694,286.509671 338.688955,290.751491 C337.129712,294.993311 335.02442,298.846297 332.375584,302.30035 C329.722991,305.758191 326.412886,308.546935 322.439007,310.666582 C318.463875,312.788755 313.670923,313.84921 308.058899,313.84921 C303.849567,313.84921 300.379154,313.26091 297.653922,312.081785 C294.924933,310.90266 292.743244,309.371312 291.106351,307.48648 C289.469459,305.601648 288.260888,303.519873 287.481893,301.239895 C286.69914,298.963704 286.155597,296.724125 285.845,294.522418 C281.011971,299.395461 275.165747,303.283796 268.308833,306.189948 C261.448161,309.098624 254.04645,310.550437 246.096187,310.550437 C234.404991,310.550437 225.520433,307.48648 219.441262,301.357303 C213.362091,295.229388 210.322505,287.297437 210.322505,277.552614 C210.322505,271.111612 211.608724,265.690668 214.179911,261.28978 C216.751097,256.892679 220.101279,253.357829 224.234214,250.682705 C228.363391,248.012631 233.038617,246.086138 238.263649,244.908275 C243.483671,243.72915 248.745022,243.14085 254.045198,243.14085 C260.278415,243.14085 265.65624,243.72915 270.178672,244.908275 C274.697348,246.0874 278.127684,247.228652 280.465923,248.325718 C280.465923,244.083898 280.075173,240.15769 279.296177,236.542043 C278.514677,232.928922 277.110731,229.864964 275.086846,227.348909 C273.059203,224.839165 270.330213,222.871011 266.903635,221.458334 C263.473299,220.043131 259.107417,219.336161 253.809746,219.336161 C247.416221,219.336161 241.571249,220.279209 236.273578,222.165304 C234.43358,222.819484 232.326207,223.814467 229.951461,225.150255 L229.951454,225.150243 C226.491544,227.096431 222.109035,225.869317 220.162846,222.409407 C219.970161,222.066853 219.805896,221.709073 219.671704,221.339664 L219.671704,221.339664 C217.932244,216.551207 220.266307,211.241472 224.970486,209.285521 C237.953019,203.8875 248.579303,201.188495 256.849332,201.188495 C266.980031,201.188495 274.890218,202.76024 280.581144,205.902469 C286.269565,209.047223 290.477644,213.01383 293.207886,217.804814 C295.933118,222.599585 297.610088,227.903122 298.235038,233.714163 C298.85623,239.528991 299.170584,245.107742 299.170584,250.449152 L299.170584,273.074716 C299.170584,276.53382 299.287058,279.874253 299.521257,283.092229 C299.755457,286.315254 300.258923,289.141872 301.041676,291.577131 C301.819419,294.014915 302.989165,295.978019 304.549661,297.47023 C306.105148,298.964967 308.290593,299.708548 311.095979,299.708548 C315.304059,299.708548 318.694318,298.139327 321.266756,294.994573 C323.837943,291.852344 325.863081,288.042281 327.345928,283.563121 C328.82627,279.085224 329.80064,274.411647 330.26904,269.541129 C330.737439,264.671873 330.970386,260.584072 330.970386,257.284037 C330.970386,246.288129 329.136866,236.112811 325.476088,226.761871 C321.811552,217.41598 316.708004,209.321174 310.161686,202.486289 C303.614115,195.650142 295.7415,190.311257 286.545094,186.45827 C277.346183,182.609071 267.137834,180.68384 255.915038,180.68384 C244.845035,180.68384 234.754412,182.568673 225.635654,186.3396 C216.516897,190.110528 208.644283,195.335793 202.020315,202.014134 C195.392591,208.693738 190.248966,216.626951 186.588187,225.818823 C182.923652,235.011958 181.093889,245.028208 181.093889,255.870097 C181.093889,266.3989 182.807178,276.257344 186.237514,285.450478 C189.664093,294.642351 194.538451,302.655098 200.851822,309.491245 C207.165193,316.32613 214.763531,321.747074 223.649341,325.754079 C232.533898,329.759822 242.430399,331.763324 253.343851,331.763324 C260.825716,331.763324 267.29188,330.938946 272.751111,329.287667 C275.393284,328.488965 279.119731,327.129892 283.930454,325.210447 L283.930458,325.210458 C286.93013,324.013609 290.332082,325.475087 291.52893,328.474759 C291.589192,328.625796 291.643129,328.77928 291.690598,328.934813 L291.690598,328.934813 C292.74905,332.402809 290.975986,336.103749 287.610093,337.45211 C287.206359,337.613851 286.985528,337.702028 286.947603,337.716647 C281.302984,339.892541 276.804602,341.364678 273.452458,342.133059 C266.590534,343.702279 259.733619,344.490046 252.876704,344.490046 C241.185509,344.490046 230.195659,342.369136 219.908409,338.127316 C209.619906,333.885496 200.618875,327.873727 192.901558,320.095794 C185.186747,312.317862 179.106323,302.971972 174.664044,292.049286 C170.221766,281.129124 168,269.068974 168,255.870097 C168,241.885979 170.414636,229.435732 175.247665,218.513046 C180.078189,207.594148 186.588187,198.401013 194.771398,190.93743 C202.954609,183.476372 212.42404,177.780214 223.179689,173.848956 C230.212323,171.281857 241.139938,169.343373 255.962536,168.033503 L255.962536,168.033504 C256.556117,167.981049 257.153198,167.981756 257.746653,168.035616 Z M268.310085,289.572366 C272.519416,287.532252 275.559002,285.016197 277.428842,282.029249 C279.298682,279.04735 280.234228,275.746053 280.234228,272.130407 L280.234228,263.17335 C278.048782,262.388108 274.622204,261.368051 269.946978,260.109392 C265.270499,258.853258 259.969071,258.22456 254.04645,258.22456 C246.717379,258.22456 240.719614,259.6385 236.043136,262.46638 C231.366657,265.295522 229.028418,270.089031 229.028418,276.844381 C229.028418,282.187054 230.701631,286.430137 234.05557,289.571103 C237.405752,292.715857 242.042153,294.285078 247.968531,294.285078 C251.084514,294.285078 254.51485,293.89372 258.257034,293.105953 C261.997966,292.323236 265.348148,291.144112 268.310085,289.572366 Z" id="Shape" fill="#4D4D4D"></path>
            <path d="M336.90533,219.141703 C332.146193,207.981677 325.708834,198.639574 317.605777,191.090144 C309.50272,183.553339 300.197354,177.821833 289.664633,173.883 C279.144435,169.956792 268.19842,168 256.814063,168 C256.538534,168 256.275529,168 256,168.012624 L256,180.72546 C267.171448,180.738084 277.340972,182.657003 286.508573,186.49484 C295.713746,190.345301 303.578846,195.685449 310.128922,202.527909 C316.678997,209.357744 321.776284,217.450025 325.445829,226.804753 C329.10285,236.146856 330.943885,246.322174 330.943885,257.318082 C330.943885,260.625691 330.705928,264.716017 330.242538,269.576436 C330.21749,269.854174 330.192442,270.131912 330.15487,270.397026 C329.653908,274.979706 328.70208,279.37302 327.311911,283.602215 C325.834074,288.0839 323.805179,291.896488 321.23775,295.03998 C318.657796,298.183471 315.276304,299.748905 311.068225,299.748905 C308.262839,299.748905 306.071131,299.004061 304.51815,297.514374 C302.952644,296.012063 301.787908,294.055271 301.011417,291.61875 C300.222402,289.182228 299.721441,286.354348 299.496008,283.13511 C299.258051,279.915872 299.145335,276.570389 299.145335,273.111286 L299.145335,250.488247 C299.145335,245.148098 298.819709,239.568085 298.206031,233.748208 C297.579829,227.940954 295.901607,222.638679 293.171365,217.841383 C290.453647,213.056711 286.233044,209.09263 280.547128,205.936514 C274.861212,202.805647 266.946015,201.227589 256.814063,201.227589 C256.538534,201.227589 256.263005,201.227589 256,201.240213 L256,219.432066 C260.308271,219.596184 263.92772,220.290529 266.870871,221.502478 C270.302459,222.916418 273.032701,224.87321 275.061596,227.385478 C277.077968,229.910371 278.480661,232.965491 279.269675,236.576088 C280.046166,240.199309 280.434412,244.125517 280.434412,248.367337 C278.092415,247.269008 274.660827,246.132807 270.152171,244.946107 C266.106904,243.898277 261.397863,243.317551 256,243.203931 L256,258.290165 C261.122334,258.41641 265.756231,259.035009 269.914214,260.145961 C274.585683,261.408408 278.017271,262.430989 280.196455,263.213706 L280.196455,272.177076 C280.196455,275.787672 279.269675,279.082657 277.391069,282.074655 C275.524986,285.054029 272.481643,287.578921 268.273564,289.61146 C265.317889,291.189518 261.961445,292.363593 258.216756,293.14631 C257.465313,293.310428 256.726395,293.449297 256,293.575542 L256,309.785353 C260.258175,309.078383 264.353538,307.891684 268.273564,306.225254 C275.136741,303.321628 280.972945,299.433293 285.807227,294.56025 C286.120328,296.769531 286.671386,299.004061 287.447877,301.276465 C288.224367,303.561493 289.4392,305.644529 291.067326,307.525574 C292.707976,309.406619 294.887159,310.946804 297.617401,312.120879 C300.347643,313.294954 303.816803,313.888304 308.024882,313.888304 C313.635654,313.888304 318.432364,312.827849 322.402486,310.706939 C326.385132,308.586029 329.69148,305.796023 332.346578,302.33692 C334.989151,298.890441 337.093191,295.03998 338.658696,290.785535 C340.211678,286.543715 341.376414,282.390267 342.165429,278.29994 C342.678915,275.573056 343.079684,272.947168 343.355213,270.397026 C343.492977,269.121955 343.605694,267.872133 343.680838,266.634936 C343.918795,262.935968 344.031511,259.994468 344.031511,257.797811 C344.031511,243.178682 341.651943,230.301729 336.90533,219.141703 Z M272.7196,329.328023 C267.922891,330.779837 262.362215,331.587802 256,331.764545 L256,344.464755 C261.811157,344.262764 267.60979,343.505296 273.420946,342.167103 C276.886089,341.375288 281.579252,339.827672 287.500434,337.524255 L287.500441,337.524274 C290.910043,336.197895 292.721528,332.468115 291.655956,328.968226 L291.655956,328.968226 C290.716087,325.881213 287.451654,324.140608 284.364641,325.080477 C284.207636,325.128278 284.052715,325.182674 283.90029,325.243518 C279.086218,327.165201 275.35932,328.526699 272.7196,329.328023 Z" id="Shape" fill="#333333"></path>
        </g>
    </g>
</svg>