<?xml version="1.0" encoding="UTF-8" standalone="no"?>
<svg width="512px" height="512px" viewBox="0 0 512 512" version="1.1" xmlns="http://www.w3.org/2000/svg" xmlns:xlink="http://www.w3.org/1999/xlink">
    <!-- Generator: Sketch 48.2 (47327) - http://www.bohemiancoding.com/sketch -->
    <title>fast-forward-block</title>
    <desc>Created with Sketch.</desc>
    <defs></defs>
    <g id="Page-1" stroke="none" stroke-width="1" fill="none" fill-rule="evenodd">
        <g id="fast-forward-block" fill-rule="nonzero">
            <circle id="Oval" fill="#4D4D4D" cx="256" cy="256" r="256"></circle>
            <path d="M150.352,361.656 L297.353,508.657 C405.609,491.071 491.075,405.605 508.657,297.348 L361.632,150.323 L150.352,361.656 Z" id="Shape" fill="#333333"></path>
            <path d="M169.948,369.778 L342.05,369.778 C357.363,369.778 369.776,357.364 369.776,342.052 L369.776,169.95 C369.776,154.637 357.362,142.223 342.05,142.223 L169.948,142.223 C154.635,142.223 142.221,154.637 142.221,169.95 L142.221,342.053 C142.222,357.364 154.636,369.778 169.948,369.778 Z" id="Shape" fill="#F8F9F9"></path>
            <path d="M142.222,256 L142.222,342.052 C142.222,357.365 154.636,369.778 169.948,369.778 L342.05,369.778 C357.363,369.778 369.776,357.364 369.776,342.052 L369.776,256 L142.222,256 Z" id="Shape" fill="#DFE5E1"></path>
            <g id="Group" transform="translate(170.000000, 174.000000)" fill="#4D4D4D">
                <path d="M129.156,86.842 L79.323,136.675 C73.284,142.714 73.284,152.506 79.323,158.544 C85.362,164.583 95.154,164.583 101.192,158.544 L166.802,92.934 C172.841,86.895 172.841,77.103 166.802,71.065 L101.192,5.455 C95.153,-0.584 85.361,-0.584 79.323,5.455 C73.284,11.494 73.284,21.286 79.323,27.324 L129.156,77.157 C131.83,79.831 131.83,84.169 129.156,86.842 Z" id="Shape"></path>
                <path d="M55.028,86.842 L5.195,136.675 C-0.844,142.714 -0.844,152.506 5.195,158.544 C11.234,164.583 21.026,164.583 27.064,158.544 L92.674,92.934 C98.713,86.895 98.713,77.103 92.674,71.065 L27.064,5.455 C21.025,-0.584 11.233,-0.584 5.195,5.455 C-0.844,11.494 -0.844,21.286 5.195,27.324 L55.028,77.157 C57.702,79.831 57.702,84.169 55.028,86.842 Z" id="Shape"></path>
            </g>
            <g id="Group" transform="translate(170.000000, 255.000000)" fill="#333333">
                <path d="M129.156,5.842 L79.323,55.675 C73.284,61.714 73.284,71.506 79.323,77.544 C85.362,83.583 95.154,83.583 101.192,77.544 L166.802,11.934 C169.822,8.914 171.331,4.957 171.331,0.999 L131.161,0.999 C131.163,2.753 130.494,4.505 129.156,5.842 Z" id="Shape"></path>
                <path d="M55.028,5.842 L5.195,55.675 C-0.844,61.714 -0.844,71.506 5.195,77.544 C11.234,83.583 21.026,83.583 27.064,77.544 L92.674,11.934 C95.694,8.914 97.203,4.957 97.203,0.999 L57.033,0.999 C57.035,2.753 56.366,4.505 55.028,5.842 Z" id="Shape"></path>
            </g>
        </g>
    </g>
</svg>