<?xml version="1.0" encoding="UTF-8" standalone="no"?>
<svg width="512px" height="512px" viewBox="0 0 512 512" version="1.1" xmlns="http://www.w3.org/2000/svg" xmlns:xlink="http://www.w3.org/1999/xlink">
    <!-- Generator: Sketch 48.2 (47327) - http://www.bohemiancoding.com/sketch -->
    <title>followers</title>
    <desc>Created with Sketch.</desc>
    <defs></defs>
    <g id="Page-1" stroke="none" stroke-width="1" fill="none" fill-rule="evenodd">
        <g id="followers" fill-rule="nonzero">
            <circle id="Oval" fill="#4D4D4D" cx="256" cy="256" r="256"></circle>
            <path d="M498.433,338.439 L342.044,182.05 L324.958,192.785 L233.201,101.028 L214.052,138.775 L177.002,157.228 L255.926,236.152 L237.865,261.697 L111.192,389.329 L232.807,510.944 C240.447,511.629 248.18,512 256,512 C368.542,512 464.119,439.377 498.433,338.439 Z" id="Shape" fill="#333333"></path>
            <path d="M208.798,352.068 C208.798,298.57 252.166,255.202 305.664,255.202 C359.162,255.202 402.53,298.57 402.53,352.068 L208.798,352.068 Z" id="Shape" fill="#DC755E"></path>
            <path d="M305.666,255.202 C305.583,255.202 305.502,255.207 305.419,255.209 L305.419,352.07 L402.532,352.07 C402.532,298.57 359.164,255.202 305.666,255.202 Z" id="Shape" fill="#D5573B"></path>
            <path d="M111.192,389.329 C111.192,335.831 154.56,292.463 208.058,292.463 C261.556,292.463 304.924,335.831 304.924,389.329 L111.192,389.329 Z" id="Shape" fill="#DC755E"></path>
            <path d="M208.06,292.461 C208.046,292.461 208.032,292.463 208.02,292.463 L208.02,389.329 L304.928,389.329 C304.926,335.831 261.556,292.461 208.06,292.461 Z" id="Shape" fill="#D5573B"></path>
            <circle id="Oval" fill="#F8F9F9" cx="305.666" cy="223.746" r="55.355"></circle>
            <path d="M305.666,168.398 C305.583,168.398 305.502,168.403 305.419,168.405 L305.419,279.097 C305.502,279.097 305.583,279.104 305.666,279.104 C336.236,279.104 361.019,254.323 361.019,223.751 C361.019,193.181 336.236,168.398 305.666,168.398 Z" id="Shape" fill="#DFE5E1"></path>
            <circle id="Oval" fill="#F8F9F9" cx="208.058" cy="261.017" r="55.355"></circle>
            <path d="M208.06,205.658 C208.046,205.658 208.032,205.66 208.02,205.66 L208.02,316.362 C208.034,316.362 208.048,316.362 208.06,316.362 C238.63,316.362 263.413,291.581 263.413,261.009 C263.411,230.441 238.63,205.658 208.06,205.658 Z" id="Shape" fill="#DFE5E1"></path>
            <polygon id="Shape" fill="#F8F9F9" points="264.256 132.084 233.2 132.084 233.2 101.028 208.06 101.028 208.06 132.086 177.002 132.086 177.002 157.227 208.06 157.225 208.06 188.282 233.2 188.282 233.2 157.225 264.256 157.225"></polygon>
            <polygon id="Shape" fill="#DFE5E1" points="233.2 132.084 233.2 101.028 220.086 101.028 220.086 188.282 233.2 188.282 233.2 157.225 264.256 157.225 264.256 132.084"></polygon>
        </g>
    </g>
</svg>