<?xml version="1.0" encoding="UTF-8" standalone="no"?>
<svg width="512px" height="512px" viewBox="0 0 512 512" version="1.1" xmlns="http://www.w3.org/2000/svg" xmlns:xlink="http://www.w3.org/1999/xlink">
    <!-- Generator: Sketch 48.2 (47327) - http://www.bohemiancoding.com/sketch -->
    <title>forward-block</title>
    <desc>Created with Sketch.</desc>
    <defs></defs>
    <g id="Page-1" stroke="none" stroke-width="1" fill="none" fill-rule="evenodd">
        <g id="forward-block" fill-rule="nonzero">
            <circle id="Oval" fill="#4D4D4D" cx="256" cy="256" r="256"></circle>
            <path d="M150.637,361.874 L297.412,508.649 C405.627,491.044 491.057,405.609 508.653,297.39 L361.727,150.466 L150.637,361.874 Z" id="Shape" fill="#333333"></path>
            <path d="M342.052,142.222 L169.95,142.222 C154.637,142.222 142.223,154.636 142.223,169.949 L142.223,342.052 C142.223,357.365 154.637,369.779 169.95,369.779 L342.053,369.779 C357.366,369.779 369.78,357.365 369.78,342.052 L369.78,169.95 C369.778,154.636 357.364,142.222 342.052,142.222 Z" id="Shape" fill="#F8F9F9"></path>
            <path d="M142.222,256.576 L142.222,342.052 C142.222,357.365 154.636,369.778 169.948,369.778 L342.05,369.778 C357.363,369.778 369.777,357.364 369.777,342.052 L369.777,256.576 L142.222,256.576 Z" id="Shape" fill="#DFE5E1"></path>
            <path d="M249.908,251.158 L299.741,201.325 C305.78,195.286 305.78,185.494 299.741,179.456 C293.702,173.417 283.91,173.417 277.872,179.456 L212.262,245.066 C206.223,251.105 206.223,260.897 212.262,266.935 L277.872,332.545 C283.911,338.584 293.703,338.584 299.741,332.545 C305.78,326.506 305.78,316.714 299.741,310.676 L249.908,260.843 C247.234,258.169 247.234,253.831 249.908,251.158 Z" id="Shape" fill="#4D4D4D"></path>
            <path d="M249.908,260.842 C248.719,259.652 248.088,258.13 247.957,256.575 L207.759,256.575 C207.899,260.338 209.388,264.062 212.262,266.936 L277.872,332.546 C283.911,338.585 293.703,338.585 299.741,332.546 C305.779,326.507 305.78,316.715 299.741,310.677 L249.908,260.842 Z" id="Shape" fill="#333333"></path>
        </g>
    </g>
</svg>