<?xml version="1.0" encoding="UTF-8" standalone="no"?>
<svg width="512px" height="512px" viewBox="0 0 512 512" version="1.1" xmlns="http://www.w3.org/2000/svg" xmlns:xlink="http://www.w3.org/1999/xlink">
    <!-- Generator: Sketch 48.2 (47327) - http://www.bohemiancoding.com/sketch -->
    <title>heart</title>
    <desc>Created with Sketch.</desc>
    <defs></defs>
    <g id="Page-1" stroke="none" stroke-width="1" fill="none" fill-rule="evenodd">
        <g id="heart" fill-rule="nonzero">
            <circle id="Oval" fill="#4D4D4D" cx="256" cy="256" r="256"></circle>
            <path d="M355.5,492 C421,463 469.325,415.918 495.573,346.372 C502.327595,328.475205 511.5,293.5 511.5,269.5 C491.166667,249.166667 449.833333,207.833333 387.5,145.5 L256.5,393 L355.5,492 Z" id="Shape" fill="#333333"></path>
            <path d="M105,199.549669 C105,155.614748 139.501717,120 182.063584,120 C217.717751,120 247.702491,144.998483 256.5,178.939073 C265.297509,145.000291 295.282249,120 330.936416,120 C373.498283,120 408,155.614748 408,199.549669 C408,313.450331 256.5,393 256.5,393 C256.5,393 105,313.450331 105,199.549669 Z" id="Shape" fill="#DC755E"></path>
            <path d="M256.5,393.033201 C256.5,393.033201 407.710806,313.44469 407.710806,199.488413 C407.710806,155.53204 373.274948,119.899902 330.794326,119.899902 C295.208218,119.899902 265.280715,144.910592 256.5,178.867754 L256.5,393.033201 Z" id="Shape" fill="#D5573B"></path>
        </g>
    </g>
</svg>