<?xml version="1.0" encoding="UTF-8" standalone="no"?>
<svg width="512px" height="512px" viewBox="0 0 512 512" version="1.1" xmlns="http://www.w3.org/2000/svg" xmlns:xlink="http://www.w3.org/1999/xlink">
    <!-- Generator: Sketch 48.2 (47327) - http://www.bohemiancoding.com/sketch -->
    <title>home</title>
    <desc>Created with Sketch.</desc>
    <defs></defs>
    <g id="Page-1" stroke="none" stroke-width="1" fill="none" fill-rule="evenodd">
        <g id="home" fill-rule="nonzero">
            <circle id="Oval" fill="#4D4D4D" cx="256" cy="256" r="256"></circle>
            <path d="M277.699,511.076 C389.508,501.689 480.879,420.462 505.47,313.694 L416.904,225.128 L384.71,249.383 L336.017,200.69 L236.099,297.586 L149.195,210.682 L125.262,255.305 L201.295,331.336 L148.835,382.21 L277.699,511.076 Z" id="Shape" fill="#333333"></path>
            <path d="M348.084,388.33 L163.914,388.33 C151.933,388.33 142.22,378.618 142.22,366.638 L142.22,219.389 L254.85,115.246 L369.776,219.389 L369.776,366.638 C369.778,378.618 360.065,388.33 348.084,388.33 Z" id="Shape" fill="#F8F9F9"></path>
            <path d="M255.426,115.764 L255.426,388.33 L348.086,388.33 C360.067,388.33 369.778,378.618 369.778,366.638 L369.778,219.388 L255.426,115.764 Z" id="Shape" fill="#DFE5E1"></path>
            <polygon id="Shape" fill="#DC755E" points="256 124.568 386.736 255.3 416.906 225.128 256 64.228 95.094 225.137 125.264 255.307"></polygon>
            <polygon id="Shape" fill="#D5573B" points="256 64.228 255.426 64.802 255.426 125.142 256 124.568 386.736 255.3 416.906 225.128"></polygon>
            <rect id="Rectangle-path" fill="#4D4D4D" x="227.556" y="284.444" width="56.889" height="103.883"></rect>
            <rect id="Rectangle-path" fill="#333333" x="255.431" y="284.444" width="29.018" height="103.883"></rect>
        </g>
    </g>
</svg>