<?xml version="1.0" encoding="UTF-8" standalone="no"?>
<svg width="512px" height="512px" viewBox="0 0 512 512" version="1.1" xmlns="http://www.w3.org/2000/svg" xmlns:xlink="http://www.w3.org/1999/xlink">
    <!-- Generator: Sketch 48.2 (47327) - http://www.bohemiancoding.com/sketch -->
    <title>info</title>
    <desc>Created with Sketch.</desc>
    <defs></defs>
    <g id="Page-1" stroke="none" stroke-width="1" fill="none" fill-rule="evenodd">
        <g id="info">
            <circle id="Oval" fill="#4D4D4D" fill-rule="nonzero" cx="256" cy="256" r="256"></circle>
            <path d="M333,117 L256.5,119 L256.5,281.5 L256.5,327.5 L256.5,452 L311.5,506 C410,485.5 496,397 509,293 C445.066189,229.066189 397.115831,181.115831 365.148926,149.148926 C358.00472,142.00472 347.288411,131.288411 333,117 Z" id="Shape" fill="#333333" fill-rule="nonzero"></path>
            <g id="Group" transform="translate(155.000000, 85.000000)">
                <path d="M124.5,346.666667 C124.5,357.890667 114.196,367 101.5,367 C88.804,367 78.5,357.890667 78.5,346.666667 L78.5,326.333333 C78.5,315.109333 88.804,306 101.5,306 C114.196,306 124.5,315.109333 124.5,326.333333 L124.5,346.666667 Z" id="Path" fill="#F8F9F9"></path>
                <path d="M124.5,346.666667 C124.5,357.890667 114.196,367 101.5,367 C101.5,336.5 101.5,336.5 101.5,306 C114.196,306 124.5,315.109333 124.5,326.333333 L124.5,346.666667 Z" id="Path" fill="#D8D8D8"></path>
                <path d="M156.468612,168.12437 C136.484297,179.733852 124.056129,201.471185 124.056129,224.862667 L124.056129,253.703704 C124.056129,264.907259 113.951193,274 101.500469,274 C89.0497447,274 78.9448091,264.907259 78.9448091,253.703704 L78.9448091,224.862667 C78.9448091,187.25363 98.7937897,153.287778 132.018277,134.016444 C148.483908,124.456889 158.149008,108.23 157.87834,90.6128148 C157.472339,63.8724444 132.018277,40.9680741 102.301195,40.6027407 C86.8956792,39.9228148 72.7307249,45.5956296 61.9040082,55.1957778 C51.0772915,64.8162222 45.1113195,77.6434815 45.1113195,91.3333333 C45.1113195,102.536889 35.0063839,111.62963 22.5556597,111.62963 C10.1049356,111.62963 0,102.536889 0,91.3333333 C0,66.6936296 10.736494,43.6065926 30.2358619,26.304 C49.3743392,9.316 74.6254003,0 101.477913,0 C101.96286,0 102.447807,0.0101481481 102.944031,0.0101481481 C157.348282,0.690074074 202.234045,41.0797037 202.98966,90.0343704 C203.485884,121.737185 186.095471,150.933407 156.468612,168.12437 Z" id="Path" fill="#F8F9F9"></path>
                <path d="M156.468612,168.12437 C136.484297,179.733852 124.056129,201.471185 124.056129,224.862667 L124.056129,253.703704 C124.056129,264.907259 113.951193,274 101.5,274 C101.500469,264 101.500469,182.199951 101.500469,160.199951 C109.734678,149.833635 119.933164,141.026221 132.018277,134.016444 C148.483908,124.456889 158.149008,108.23 157.87834,90.6128148 C157.472339,63.8724444 131.217551,40.8653333 101.500469,40.5 C101.5,0 101.500469,9 101.5,0 C102.5,0 102.5,0 103.5,0 C157.904251,0.679925926 202.234045,41.0797037 202.98966,90.0343704 C203.485884,121.737185 186.095471,150.933407 156.468612,168.12437 Z" id="Path" fill="#D8D8D8"></path>
            </g>
        </g>
    </g>
</svg>