<?xml version="1.0" encoding="UTF-8" standalone="no"?>
<svg width="512px" height="512px" viewBox="0 0 512 512" version="1.1" xmlns="http://www.w3.org/2000/svg" xmlns:xlink="http://www.w3.org/1999/xlink">
    <!-- Generator: Sketch 48.2 (47327) - http://www.bohemiancoding.com/sketch -->
    <title>info2</title>
    <desc>Created with Sketch.</desc>
    <defs></defs>
    <g id="Page-1" stroke="none" stroke-width="1" fill="none" fill-rule="evenodd">
        <g id="info2">
            <circle id="Oval" fill="#4D4D4D" fill-rule="nonzero" cx="256" cy="256" r="256"></circle>
            <path d="M150.354,361.6 L297.403,508.649 C405.594,491.053 491.011,405.654 508.638,297.472 L361.605,150.438 L150.354,361.6 Z" id="Shape" fill="#333333" fill-rule="nonzero"></path>
            <path d="M169.948,369.778 L342.05,369.778 C357.363,369.778 369.776,357.364 369.776,342.052 L369.776,169.95 C369.776,154.637 357.362,142.223 342.05,142.223 L169.948,142.223 C154.635,142.223 142.221,154.637 142.221,169.95 L142.221,342.053 C142.222,357.364 154.636,369.778 169.948,369.778 Z" id="Shape" fill="#F8F9F9" fill-rule="nonzero"></path>
            <path d="M199.112,198.888 L199.112,284.94 C199.112,300.253 211.526,312.666 226.838,312.666 L398.94,312.666 C414.253,312.666 426.666,300.252 426.666,284.94 L426.666,198.888 L199.112,198.888 Z" id="Shape" fill="#DFE5E1" fill-rule="nonzero" transform="translate(312.889000, 255.777000) rotate(-90.000000) translate(-312.889000, -255.777000) "></path>
            <g id="Group-2" transform="translate(203.000000, 167.000000)">
                <path d="M65,168.333333 C65,173.669333 59.624,178 53,178 C46.376,178 41,173.669333 41,168.333333 L41,158.666667 C41,153.330667 46.376,149 53,149 C59.624,149 65,153.330667 65,158.666667 L65,168.333333 Z" id="Path" fill="#4D4D4D"></path>
                <path d="M65,168.333333 C65,173.669333 59.624,178 53,178 C53,163.5 53,163.5 53,149 C59.624,149 65,153.330667 65,158.666667 L65,168.333333 Z" id="Path" fill="#333333"></path>
                <path d="M80.9320405,81.6078148 C70.5953261,87.2430741 64.1669631,97.7944074 64.1669631,109.148667 L64.1669631,123.148148 C64.1669631,128.58637 58.9402723,133 52.5002425,133 C46.0602128,133 40.833522,128.58637 40.833522,123.148148 L40.833522,109.148667 C40.833522,90.8931852 51.100236,74.4061111 68.2853154,65.0517778 C76.8020214,60.4115556 81.8012112,52.535 81.6612106,43.9835926 C81.4512096,31.0037778 68.2853154,19.885963 52.9144111,19.7086296 C44.946041,19.3785926 37.6193404,22.1321852 32.0193146,26.7921111 C26.4192887,31.4618889 23.3334411,37.6882593 23.3334411,44.3333333 C23.3334411,49.7715556 18.1067503,54.1851852 11.6667206,54.1851852 C5.22669081,54.1851852 0,49.7715556 0,44.3333333 C0,32.3731852 5.55335899,21.1667037 15.6392389,12.768 C25.5384513,4.522 38.599345,0 52.4885758,0 C52.7394103,0 52.9902448,0.00492592593 53.2469126,0.00492592593 C81.3870426,0.334962963 104.603817,19.9401481 104.994652,43.7028148 C105.25132,59.0914074 96.256278,73.2632963 80.9320405,81.6078148 Z" id="Path" fill="#4D4D4D"></path>
                <path d="M81.7028219,81.6078148 C71.2676625,87.2430741 64.778077,97.7944074 64.778077,109.148667 L64.778077,123.148148 C64.778077,128.58637 59.5016082,133 53,133 C53.0002448,128.145985 53.0002448,88.4401223 53.0002448,77.7612902 C57.2998812,72.729465 62.6251989,68.4543336 68.9356518,65.0517778 C77.5334693,60.4115556 82.5802704,52.535 82.4389364,43.9835926 C82.2269354,31.0037778 68.5175387,19.8360925 53.0002448,19.6587591 C53,0 53.0002448,4.36861314 53,0 C53.5221675,0 53.5221675,0 54.044335,0 C82.4524662,0.330037037 105.600043,19.9401481 105.994601,43.7028148 C106.253713,59.0914074 97.1730044,73.2632963 81.7028219,81.6078148 Z" id="Path" fill="#333333"></path>
            </g>
        </g>
    </g>
</svg>