<?xml version="1.0" encoding="UTF-8" standalone="no"?>
<svg width="512px" height="512px" viewBox="0 0 512 512" version="1.1" xmlns="http://www.w3.org/2000/svg" xmlns:xlink="http://www.w3.org/1999/xlink">
    <!-- Generator: Sketch 48.2 (47327) - http://www.bohemiancoding.com/sketch -->
    <title>info2</title>
    <desc>Created with Sketch.</desc>
    <defs></defs>
    <g id="Page-1" stroke="none" stroke-width="1" fill="none" fill-rule="evenodd">
        <g id="info2">
            <circle id="Oval" fill="#4D4D4D" fill-rule="nonzero" cx="256" cy="256" r="256"></circle>
            <path d="M257,411 L342.5,497 C412.403,471.486 469.325,415.918 495.573,346.372 C499.191,336.457333 502.5,325.5 505.5,313.5 C472.5,280.5 472.784842,281.412783 472.5,281 C425.166667,233.666667 375.166667,183.333333 322.5,130 L293,236.5 L278.33145,274.190024 L257,329 L257,411 Z" id="Shape" fill="#333333" fill-rule="nonzero"></path>
            <path d="M276,394 C276,403.384 267.264,411 256.5,411 C245.736,411 237,403.384 237,394 L237,377 C237,367.616 245.736,360 256.5,360 C267.264,360 276,367.616 276,377 L276,394 Z" id="Path" fill="#F8F9F9"></path>
            <path d="M276,394 C276,403.384 267.488,411 257,411 C257,385.5 257,385.5 257,360 C267.488,360 276,367.616 276,377 L276,394 Z" id="Path" fill="#D8D8D8"></path>
            <path d="M302.803609,243.739889 C285.969531,253.527444 275.500483,271.853444 275.500483,291.574 L275.500483,315.888889 C275.500483,325.334222 266.988443,333 256.500395,333 C246.012347,333 237.500307,325.334222 237.500307,315.888889 L237.500307,291.574 C237.500307,259.867111 254.220384,231.231667 282.207514,214.984667 C296.077578,206.925333 304.219115,193.245 303.991114,178.392556 C303.649113,155.848667 282.207514,136.538778 257.174898,136.230778 C244.197838,135.657556 232.265783,140.440111 223.145741,148.533667 C214.025699,156.644333 209.000176,167.458556 209.000176,179 C209.000176,188.445333 200.488136,196.111111 190.000088,196.111111 C179.512039,196.111111 171,188.445333 171,179 C171,158.227111 180.044042,138.763222 196.469618,124.176 C212.591192,109.854 233.86179,102 256.481395,102 C256.889897,102 257.298399,102.008556 257.716401,102.008556 C303.544612,102.581778 341.354787,136.632889 341.99129,177.904889 C342.409292,204.632444 327.760224,229.246778 302.803609,243.739889 Z" id="Path" fill="#F8F9F9"></path>
            <path d="M303.032828,243.739889 C286.297195,253.527444 275.889369,271.853444 275.889369,291.574 L275.889369,315.888889 C275.889369,325.334222 267.427107,333 257,333 C257.000393,324.569343 257.000393,255.606528 257.000393,237.059083 C263.896036,228.319597 272.43664,220.894369 282.557177,214.984667 C296.34613,206.925333 304.440056,193.245 304.213389,178.392556 C303.873387,155.848667 281.886619,136.452161 257.000393,136.144161 C257,102 257.000393,109.587591 257,102 C257.837438,102 257.837438,102 258.674877,102 C304.235087,102.573222 341.35856,136.632889 341.991341,177.904889 C342.406898,204.632444 327.843498,229.246778 303.032828,243.739889 Z" id="Path" fill="#D8D8D8"></path>
        </g>
    </g>
</svg>