<?xml version="1.0" encoding="UTF-8" standalone="no"?>
<svg width="512px" height="512px" viewBox="0 0 512 512" version="1.1" xmlns="http://www.w3.org/2000/svg" xmlns:xlink="http://www.w3.org/1999/xlink">
    <!-- Generator: Sketch 48.2 (47327) - http://www.bohemiancoding.com/sketch -->
    <title>location</title>
    <desc>Created with Sketch.</desc>
    <defs></defs>
    <g id="Page-1" stroke="none" stroke-width="1" fill="none" fill-rule="evenodd">
        <g id="location" fill-rule="nonzero">
            <circle id="Oval" fill="#4D4D4D" cx="256" cy="256" r="256"></circle>
            <path d="M505.623,312.994 L342.5,149.871 L244.508,381.271 L271.904,408.667 L120.73,403.409 L227.764,510.443 C237.037,511.46 246.455,512 256,512 C377.794,512 479.715,426.944 505.623,312.994 Z" id="Shape" fill="#333333"></path>
            <ellipse id="Oval" fill="#F8F9F9" cx="256" cy="398.222" rx="138.774" ry="23.13"></ellipse>
            <path d="M256,375.093 C255.807,375.093 255.619,375.095 255.426,375.095 L255.426,421.349 C255.619,421.349 255.807,421.351 256,421.351 C332.643,421.351 394.774,410.996 394.774,398.221 C394.774,385.448 332.643,375.093 256,375.093 Z" id="Shape" fill="#DFE5E1"></path>
            <path d="M256,98.263 C201.731,98.263 157.737,142.257 157.737,196.526 C157.737,250.795 256,393.051 256,393.051 C256,393.051 354.263,250.794 354.263,196.526 C354.263,142.258 310.269,98.263 256,98.263 Z M256,232.889 C234.848,232.889 217.7,215.741 217.7,194.589 C217.7,173.437 234.848,156.289 256,156.289 C277.152,156.289 294.3,173.437 294.3,194.589 C294.3,215.741 277.152,232.889 256,232.889 Z" id="Shape" fill="#DC755E"></path>
            <path d="M354.263,196.525 C354.263,142.256 310.269,98.262 256,98.262 C255.807,98.262 255.619,98.276 255.426,98.276 L255.426,156.306 C255.617,156.303 255.807,156.29 256,156.29 C277.152,156.29 294.3,173.438 294.3,194.59 C294.3,215.742 277.152,232.89 256,232.89 C255.807,232.89 255.617,232.878 255.426,232.874 L255.426,392.213 C255.797,392.756 256,393.049 256,393.049 C256,393.049 354.263,250.794 354.263,196.525 Z" id="Shape" fill="#D5573B"></path>
        </g>
    </g>
</svg>