<?xml version="1.0" encoding="UTF-8" standalone="no"?>
<svg width="512px" height="512px" viewBox="0 0 512 512" version="1.1" xmlns="http://www.w3.org/2000/svg" xmlns:xlink="http://www.w3.org/1999/xlink">
    <!-- Generator: Sketch 48.2 (47327) - http://www.bohemiancoding.com/sketch -->
    <title>menu</title>
    <desc>Created with Sketch.</desc>
    <defs></defs>
    <g id="Page-1" stroke="none" stroke-width="1" fill="none" fill-rule="evenodd">
        <g id="menu" fill-rule="nonzero">
            <path d="M505.461,198.261 C479.279,84.684 377.53,0 256,0 C114.616,0 0,114.615 0,256 C0,380.319 88.622,483.926 206.133,507.129 L505.461,198.261 Z" id="Shape" fill="#4D4D4D"></path>
            <path d="M512,256 C512,236.144 509.738,216.818 505.461,198.261 L435.2,128 L163.542,180.875 L120.447,137.78 L73.224,185.002 L120.528,232.306 L73.224,279.61 L120.528,326.914 L73.224,374.22 L206.134,507.13 C222.265,510.315 238.935,512 256,512 C397.385,512 512,397.384 512,256 Z" id="Shape" fill="#333333"></path>
            <polygon id="Shape" fill="#DFE5E1" points="435.2 128 435.2 194.783 293.843 194.783 244.369 161.391 293.843 128"></polygon>
            <rect id="Rectangle-path" fill="#F8F9F9" x="152.487" y="128" width="141.357" height="66.783"></rect>
            <path d="M96.835,128 L78.621,161.391 L96.835,194.782 C115.277,194.782 130.226,179.833 130.226,161.391 C130.226,142.949 115.277,128 96.835,128 Z" id="Shape" fill="#DFE5E1"></path>
            <path d="M63.443,161.391 C63.443,179.833 78.392,194.782 96.834,194.782 L96.834,128 C78.394,128 63.443,142.949 63.443,161.391 Z" id="Shape" fill="#F8F9F9"></path>
            <polygon id="Shape" fill="#DFE5E1" points="435.2 222.609 435.2 289.391 293.843 289.391 244.369 256 293.843 222.609"></polygon>
            <rect id="Rectangle-path" fill="#F8F9F9" x="152.487" y="222.609" width="141.357" height="66.783"></rect>
            <path d="M96.835,222.609 L78.621,256 L96.835,289.391 C115.277,289.391 130.226,274.442 130.226,256 C130.226,237.558 115.277,222.609 96.835,222.609 Z" id="Shape" fill="#DFE5E1"></path>
            <path d="M63.443,256 C63.443,274.442 78.392,289.391 96.834,289.391 L96.834,222.608 C78.394,222.609 63.443,237.558 63.443,256 Z" id="Shape" fill="#F8F9F9"></path>
            <polygon id="Shape" fill="#DFE5E1" points="435.2 317.217 435.2 384 293.843 384 244.369 350.609 293.843 317.217"></polygon>
            <rect id="Rectangle-path" fill="#F8F9F9" x="152.487" y="317.217" width="141.357" height="66.783"></rect>
            <path d="M96.835,317.217 L78.621,350.608 L96.835,384 C115.277,384 130.226,369.051 130.226,350.609 C130.226,332.167 115.277,317.217 96.835,317.217 Z" id="Shape" fill="#DFE5E1"></path>
            <path d="M63.443,350.609 C63.443,369.051 78.392,384 96.834,384 L96.834,317.217 C78.394,317.217 63.443,332.167 63.443,350.609 Z" id="Shape" fill="#F8F9F9"></path>
        </g>
    </g>
</svg>