<?xml version="1.0" encoding="UTF-8" standalone="no"?>
<svg width="512px" height="512px" viewBox="0 0 512 512" version="1.1" xmlns="http://www.w3.org/2000/svg" xmlns:xlink="http://www.w3.org/1999/xlink">
    <!-- Generator: Sketch 48.2 (47327) - http://www.bohemiancoding.com/sketch -->
    <title>next</title>
    <desc>Created with Sketch.</desc>
    <defs></defs>
    <g id="Page-1" stroke="none" stroke-width="1" fill="none" fill-rule="evenodd">
        <g id="next" fill-rule="nonzero">
            <circle id="Oval" fill="#4D4D4D" cx="256" cy="256" r="256"></circle>
            <path d="M190.338,405.356 L294.15,509.168 C380.706,496.234 453.091,439.97 488.545,363.155 L363.972,238.582 L190.338,405.356 Z" id="Shape" fill="#333333"></path>
            <path d="M287.494,265.447 L190.274,362.667 C178.491,374.45 178.493,393.551 190.274,405.334 C202.057,417.115 221.158,417.115 232.941,405.334 L360.941,277.334 C372.724,265.553 372.722,246.45 360.941,234.667 L232.941,106.667 C221.158,94.886 202.057,94.886 190.274,106.667 C178.491,118.448 178.493,137.551 190.274,149.334 L287.494,246.554 C292.712,251.771 292.712,260.23 287.494,265.447 Z" id="Shape" fill="#F8F9F9"></path>
            <path d="M291.407,256 C291.407,259.418 290.102,262.839 287.494,265.447 L190.274,362.667 C178.491,374.448 178.491,393.551 190.274,405.334 C202.057,417.115 221.158,417.115 232.941,405.334 L360.941,277.334 C366.832,271.443 369.778,263.722 369.778,256 L291.407,256.001 L291.407,256 Z" id="Shape" fill="#DFE5E1"></path>
        </g>
    </g>
</svg>