<?xml version="1.0" encoding="UTF-8" standalone="no"?>
<svg width="512px" height="512px" viewBox="0 0 512 512" version="1.1" xmlns="http://www.w3.org/2000/svg" xmlns:xlink="http://www.w3.org/1999/xlink">
    <!-- Generator: Sketch 48.2 (47327) - http://www.bohemiancoding.com/sketch -->
    <title>next-block</title>
    <desc>Created with Sketch.</desc>
    <defs></defs>
    <g id="Page-1" stroke="none" stroke-width="1" fill="none" fill-rule="evenodd">
        <g id="next-block" fill-rule="nonzero">
            <circle id="Oval" fill="#4D4D4D" cx="256" cy="256" r="256"></circle>
            <path d="M150.354,361.6 L297.403,508.649 C405.594,491.053 491.011,405.654 508.638,297.472 L361.605,150.438 L150.354,361.6 Z" id="Shape" fill="#333333"></path>
            <path d="M169.948,369.778 L342.05,369.778 C357.363,369.778 369.776,357.364 369.776,342.052 L369.776,169.95 C369.776,154.637 357.362,142.223 342.05,142.223 L169.948,142.223 C154.635,142.223 142.221,154.637 142.221,169.95 L142.221,342.053 C142.222,357.364 154.636,369.778 169.948,369.778 Z" id="Shape" fill="#F8F9F9"></path>
            <path d="M142.222,256 L142.222,342.052 C142.222,357.365 154.636,369.778 169.948,369.778 L342.05,369.778 C357.363,369.778 369.776,357.364 369.776,342.052 L369.776,256 L142.222,256 Z" id="Shape" fill="#DFE5E1"></path>
            <path d="M262.092,260.842 L212.259,310.675 C206.22,316.714 206.22,326.506 212.259,332.544 C218.298,338.583 228.09,338.583 234.128,332.544 L299.738,266.934 C305.777,260.895 305.777,251.103 299.738,245.065 L234.128,179.455 C228.089,173.416 218.297,173.416 212.259,179.455 C206.22,185.494 206.22,195.286 212.259,201.324 L262.092,251.157 C264.766,253.831 264.766,258.169 262.092,260.842 Z" id="Shape" fill="#4D4D4D"></path>
            <path d="M262.092,260.842 L212.259,310.675 C206.22,316.714 206.22,326.506 212.259,332.544 C218.298,338.583 228.09,338.583 234.128,332.544 L299.738,266.934 C302.758,263.914 304.267,259.957 304.267,255.999 L264.097,255.999 C264.099,257.753 263.43,259.505 262.092,260.842 Z" id="Shape" fill="#333333"></path>
        </g>
    </g>
</svg>