<?xml version="1.0" encoding="UTF-8" standalone="no"?>
<svg width="512px" height="512px" viewBox="0 0 512 512" version="1.1" xmlns="http://www.w3.org/2000/svg" xmlns:xlink="http://www.w3.org/1999/xlink">
    <!-- Generator: Sketch 48.2 (47327) - http://www.bohemiancoding.com/sketch -->
    <title>photo-settings</title>
    <desc>Created with Sketch.</desc>
    <defs></defs>
    <g id="Page-1" stroke="none" stroke-width="1" fill="none" fill-rule="evenodd">
        <g id="photo-settings" fill-rule="nonzero">
            <circle id="Oval" fill="#4D4D4D" cx="256" cy="256" r="256"></circle>
            <path d="M263.518,511.881 C401.423,507.904 512,394.869 512,256 C512,254.19 511.969,252.387 511.931,250.587 L403.566,142.222 L319.941,237.768 L333.956,251.783 L113.778,362.141 L263.518,511.881 Z" id="Shape" fill="#333333"></path>
            <rect id="Rectangle-path" fill="#B7BCB9" x="170.667" y="142.222" width="232.9" height="163.03"></rect>
            <rect id="Rectangle-path" fill="#DC755E" x="113.778" y="199.111" width="232.9" height="163.03"></rect>
            <path d="M395.947,180.683 L388.096,180.683 C386.51,173.108 383.612,166.021 379.656,159.657 L385.016,154.297 C388.178,151.135 388.178,146.01 385.016,142.85 L376.191,134.025 C373.029,130.863 367.904,130.863 364.744,134.025 L359.571,139.198 C353.179,135.055 346.025,132.001 338.357,130.287 L338.357,123.095 C338.357,118.625 334.733,115 330.262,115 L317.781,115 C313.311,115 309.686,118.624 309.686,123.095 L309.686,130.287 C302.02,132.001 294.864,135.055 288.472,139.198 L283.299,134.025 C280.137,130.863 275.012,130.863 271.851,134.025 L263.026,142.85 C259.864,146.012 259.864,151.137 263.026,154.297 L268.386,159.657 C264.43,166.022 261.532,173.11 259.946,180.683 L252.095,180.683 C247.625,180.683 244,184.307 244,188.778 L244,201.259 C244,205.729 247.624,209.354 252.095,209.354 L260.34,209.354 C262.086,216.698 265.065,223.559 269.053,229.712 L263.025,235.74 C259.863,238.902 259.863,244.027 263.025,247.187 L271.85,256.012 C275.012,259.174 280.137,259.174 283.298,256.012 L289.514,249.796 C295.637,253.602 302.433,256.418 309.685,258.038 L309.685,266.942 C309.685,271.412 313.309,275.037 317.78,275.037 L330.261,275.037 C334.731,275.037 338.356,271.413 338.356,266.942 L338.356,258.038 C345.607,256.418 352.404,253.601 358.527,249.796 L364.743,256.012 C367.905,259.174 373.03,259.174 376.19,256.012 L385.015,247.187 C388.177,244.025 388.177,238.9 385.015,235.74 L378.987,229.712 C382.974,223.559 385.955,216.698 387.7,209.354 L395.945,209.354 C400.415,209.354 404.04,205.73 404.04,201.259 L404.04,188.778 C404.042,184.306 400.419,180.683 395.947,180.683 Z M324.024,221.762 C308.781,221.762 296.424,209.405 296.424,194.162 C296.424,178.919 308.781,166.562 324.024,166.562 C339.267,166.562 351.624,178.919 351.624,194.162 C351.624,209.405 339.267,221.762 324.024,221.762 Z" id="Shape" fill="#F8F9F9"></path>
            <path d="M395.679,180.682 L387.828,180.682 C386.242,173.107 383.344,166.02 379.388,159.656 L384.748,154.296 C387.91,151.136 387.91,146.009 384.748,142.849 L375.923,134.024 C372.761,130.862 367.636,130.862 364.475,134.024 L359.302,139.197 C352.911,135.054 345.756,132 338.088,130.286 L338.088,123.094 C338.088,118.624 334.464,115 329.994,115 L323,115 L323,166.6 C323.253,166.593 323.498,166.562 323.753,166.562 C338.996,166.562 351.353,178.919 351.353,194.162 C351.353,209.405 338.996,221.762 323.753,221.762 C323.498,221.762 323.253,221.731 323,221.724 L323,275.036 L329.994,275.036 C334.464,275.036 338.088,271.412 338.088,266.941 L338.088,258.037 C345.339,256.417 352.136,253.601 358.259,249.795 L364.475,256.011 C367.637,259.171 372.762,259.171 375.923,256.011 L384.748,247.186 C387.91,244.024 387.91,238.899 384.748,235.738 L378.72,229.71 C382.707,223.557 385.688,216.696 387.433,209.352 L395.678,209.352 C400.148,209.352 403.772,205.728 403.772,201.257 L403.772,188.776 C403.774,184.305 400.151,180.682 395.679,180.682 Z" id="Shape" fill="#DFE5E1"></path>
            <rect id="Rectangle-path" fill="#D5573B" x="230.71" y="199.111" width="115.967" height="163.03"></rect>
            <rect id="Rectangle-path" fill="#F8F9F9" x="139.343" y="219.557" width="181.769" height="122.13"></rect>
            <g id="Group" transform="translate(139.000000, 219.000000)" fill="#DFE5E1">
                <rect id="Rectangle-path" x="91.71" y="0.557" width="90.402" height="122.13"></rect>
                <rect id="Rectangle-path" x="0.343" y="96.561" width="181.769" height="26.134"></rect>
            </g>
            <rect id="Rectangle-path" fill="#B7BCB9" x="230.71" y="315.561" width="90.402" height="26.134"></rect>
            <polygon id="Shape" fill="#4D4D4D" points="158.318 315.561 204.898 268.981 228.188 292.271 274.768 245.691 319.076 315.561"></polygon>
            <polygon id="Shape" fill="#333333" points="274.768 245.691 230.717 289.744 230.717 315.561 319.076 315.561"></polygon>
            <circle id="Oval" fill="#B7BCB9" cx="178.993" cy="258.569" r="16.939"></circle>
        </g>
    </g>
</svg>