<?xml version="1.0" encoding="UTF-8" standalone="no"?>
<svg width="512px" height="512px" viewBox="0 0 512 512" version="1.1" xmlns="http://www.w3.org/2000/svg" xmlns:xlink="http://www.w3.org/1999/xlink">
    <!-- Generator: Sketch 48.2 (47327) - http://www.bohemiancoding.com/sketch -->
    <title>power-button</title>
    <desc>Created with Sketch.</desc>
    <defs></defs>
    <g id="Page-1" stroke="none" stroke-width="1" fill="none" fill-rule="evenodd">
        <g id="power-button" fill-rule="nonzero">
            <circle id="Oval" fill="#4D4D4D" cx="256" cy="256" r="256"></circle>
            <path d="M353.806,156.003 L320.935,146.532 L265.405,94.837 L255.427,170.38 L216.375,133.482 L142.799,193.365 L130.156,266.516 L157.814,352.427 L311.21,506.011 C409.212,484.466 486.166,406.783 506.627,308.377 L353.806,156.003 Z" id="Shape" fill="#333333"></path>
            <path d="M256,393.223 C179.479,393.223 117.226,330.969 117.226,254.449 C117.226,199.289 149.906,149.365 200.484,127.259 C206.597,124.59 213.706,127.376 216.375,133.482 C219.044,139.59 216.258,146.704 210.152,149.373 C168.363,167.636 141.361,208.88 141.361,254.448 C141.361,317.66 192.789,369.088 256.001,369.088 C319.213,369.088 370.641,317.66 370.641,254.448 C370.641,208.88 343.639,167.637 301.852,149.373 C295.746,146.704 292.96,139.59 295.629,133.482 C298.299,127.378 305.409,124.592 311.52,127.259 C362.096,149.365 394.776,199.289 394.776,254.449 C394.774,330.967 332.521,393.223 256,393.223 Z" id="Shape" fill="#F8F9F9"></path>
            <path d="M311.517,127.257 C305.406,124.59 298.296,127.376 295.626,133.48 C292.957,139.588 295.743,146.702 301.849,149.371 C343.638,167.636 370.64,208.88 370.64,254.448 C370.64,317.66 319.212,369.088 256,369.088 C255.807,369.088 255.619,369.074 255.426,369.074 L255.426,393.209 C255.619,393.209 255.807,393.223 256,393.223 C332.521,393.223 394.774,330.969 394.774,254.449 C394.774,199.289 362.094,149.364 311.517,127.257 Z" id="Shape" fill="#DFE5E1"></path>
            <path d="M256,266.516 C249.335,266.516 243.933,261.113 243.933,254.449 L243.933,102.4 C243.933,95.735 249.336,90.333 256,90.333 C262.665,90.333 268.067,95.736 268.067,102.4 L268.067,254.448 C268.067,261.113 262.665,266.516 256,266.516 Z" id="Shape" fill="#F8F9F9"></path>
            <path d="M256,90.333 C255.807,90.333 255.617,90.354 255.426,90.362 L255.426,266.487 C255.617,266.496 255.807,266.516 256,266.516 C262.665,266.516 268.067,261.113 268.067,254.449 L268.067,102.4 C268.067,95.735 262.665,90.333 256,90.333 Z" id="Shape" fill="#DFE5E1"></path>
        </g>
    </g>
</svg>