<?xml version="1.0" encoding="UTF-8" standalone="no"?>
<svg width="512px" height="512px" viewBox="0 0 512 512" version="1.1" xmlns="http://www.w3.org/2000/svg" xmlns:xlink="http://www.w3.org/1999/xlink">
    <!-- Generator: Sketch 48.2 (47327) - http://www.bohemiancoding.com/sketch -->
    <title>prev</title>
    <desc>Created with Sketch.</desc>
    <defs></defs>
    <g id="Page-1" stroke="none" stroke-width="1" fill="none" fill-rule="evenodd">
        <g id="prev" fill-rule="nonzero">
            <circle id="Oval" fill="#4D4D4D" cx="256" cy="256" r="256"></circle>
            <path d="M156.984,289.509 L358.228,490.753 C435.923,456.871 493.536,385.562 508.287,299.596 L316.347,107.656 L156.984,289.509 Z" id="Shape" fill="#333333"></path>
            <path d="M218.255,246.553 L315.475,149.333 C327.258,137.552 327.256,118.449 315.475,106.666 C303.692,94.883 284.591,94.883 272.808,106.666 L144.808,234.666 C133.025,246.449 133.027,265.55 144.808,277.333 L272.808,405.333 C284.591,417.116 303.692,417.116 315.475,405.333 C327.258,393.552 327.256,374.449 315.475,362.666 L218.255,265.446 C213.037,260.229 213.037,251.77 218.255,246.553 Z" id="Shape" fill="#F8F9F9"></path>
            <path d="M315.475,362.667 L218.255,265.447 C215.793,262.985 214.507,259.799 214.369,256.574 L135.999,256.574 C136.142,264.102 139.064,271.587 144.808,277.332 L272.808,405.332 C284.589,417.113 303.693,417.113 315.475,405.332 C327.258,393.552 327.258,374.448 315.475,362.667 Z" id="Shape" fill="#DFE5E1"></path>
        </g>
    </g>
</svg>