<?xml version="1.0" encoding="UTF-8" standalone="no"?>
<svg width="512px" height="512px" viewBox="0 0 512 512" version="1.1" xmlns="http://www.w3.org/2000/svg" xmlns:xlink="http://www.w3.org/1999/xlink">
    <!-- Generator: Sketch 48.2 (47327) - http://www.bohemiancoding.com/sketch -->
    <title>private</title>
    <desc>Created with Sketch.</desc>
    <defs></defs>
    <g id="Page-1" stroke="none" stroke-width="1" fill="none" fill-rule="evenodd">
        <g id="private" fill-rule="nonzero">
            <circle id="Oval" fill="#4D4D4D" cx="256" cy="256" r="256"></circle>
            <path d="M512,256 C512,248.018 511.616,240.13 510.902,232.334 L350.594,72.027 L336.105,130.542 L336.105,122.686 L164.194,167.183 L210.476,213.463 L216.351,253.702 L260.58,281.285 L256.936,310.303 L256,444.48 L316.347,504.827 C428.606,477.696 512,376.596 512,256 Z M286.525,330.771 L286.313,330.559 L286.579,330.559 L286.525,330.771 Z" id="Shape" fill="#333333"></path>
            <path d="M305.131,377.82 C310.367,377.82 314.612,373.574 314.612,368.339 C314.612,363.104 310.366,358.858 305.131,358.858 L265.481,358.858 L265.481,283.991 C293.307,279.445 314.612,255.248 314.612,226.156 C314.612,193.836 288.319,167.543 255.999,167.543 C223.679,167.543 197.386,193.836 197.386,226.156 C197.386,255.247 218.692,279.444 246.517,283.991 L246.517,434.964 C246.517,440.2 250.763,444.445 255.998,444.445 C261.234,444.445 265.479,440.199 265.479,434.964 L265.479,426.953 L305.129,426.953 C310.365,426.953 314.61,422.707 314.61,417.472 C314.61,412.237 310.364,407.991 305.129,407.991 L265.479,407.991 L265.479,402.388 L280.563,402.388 C285.799,402.388 290.044,398.142 290.044,392.907 C290.044,387.672 285.798,383.426 280.563,383.426 L265.479,383.426 L265.479,377.823 L305.131,377.823 L305.131,377.82 Z M216.35,226.156 C216.35,204.292 234.136,186.506 256,186.506 C277.864,186.506 295.65,204.292 295.65,226.156 C295.65,248.02 277.864,265.806 256,265.806 C234.136,265.806 216.35,248.018 216.35,226.156 Z" id="Shape" fill="#F8F9F9"></path>
            <path d="M305.131,377.82 C310.367,377.82 314.612,373.574 314.612,368.339 C314.612,363.104 310.366,358.858 305.131,358.858 L265.481,358.858 L265.481,283.991 C293.307,279.445 314.612,255.248 314.612,226.156 C314.612,193.836 288.319,167.543 255.999,167.543 C255.806,167.543 255.616,167.555 255.425,167.557 L255.425,186.52 C255.616,186.517 255.806,186.506 255.999,186.506 C277.863,186.506 295.649,204.292 295.649,226.156 C295.649,248.02 277.863,265.806 255.999,265.806 C255.806,265.806 255.616,265.794 255.425,265.792 L255.425,444.418 C255.616,444.43 255.806,444.447 255.999,444.447 C261.235,444.447 265.48,440.201 265.48,434.966 L265.48,426.955 L305.13,426.955 C310.366,426.955 314.611,422.709 314.611,417.474 C314.611,412.239 310.365,407.993 305.13,407.993 L265.48,407.993 L265.48,402.39 L280.564,402.39 C285.8,402.39 290.045,398.144 290.045,392.909 C290.045,387.674 285.799,383.428 280.564,383.428 L265.48,383.428 L265.48,377.825 L305.13,377.825 L305.13,377.82 L305.131,377.82 Z" id="Shape" fill="#DFE5E1"></path>
            <path d="M341.342,68.73 L170.658,68.73 C162.569,68.73 156.013,75.286 156.013,83.375 L156.013,154.057 C156.013,162.146 162.569,168.702 170.658,168.702 L236.003,168.702 L249.958,194.852 C252.537,199.684 259.464,199.684 262.041,194.852 L275.998,168.702 L341.343,168.702 C349.432,168.702 355.988,162.146 355.988,154.057 L355.988,83.375 C355.987,75.286 349.431,68.73 341.342,68.73 Z" id="Shape" fill="#DC755E"></path>
            <path d="M341.342,68.73 L255.426,68.73 L255.426,198.438 C257.986,198.648 260.648,197.462 262.042,194.851 L275.997,168.701 L341.342,168.701 C349.431,168.701 355.987,162.145 355.987,154.056 L355.987,83.375 C355.987,75.286 349.431,68.73 341.342,68.73 Z" id="Shape" fill="#D5573B"></path>
            <path d="M312.889,119.811 L199.111,119.811 C195.779,119.811 193.077,117.11 193.077,113.777 C193.077,110.445 195.778,107.743 199.111,107.743 L312.889,107.743 C316.221,107.743 318.923,110.444 318.923,113.777 C318.923,117.11 316.221,119.811 312.889,119.811 Z" id="Shape" fill="#F8F9F9"></path>
            <path d="M312.889,107.744 L255.426,107.744 L255.426,119.811 L312.889,119.811 C316.221,119.811 318.923,117.11 318.923,113.777 C318.923,110.445 316.221,107.744 312.889,107.744 Z" id="Shape" fill="#DFE5E1"></path>
        </g>
    </g>
</svg>