<?xml version="1.0" encoding="UTF-8" standalone="no"?>
<svg width="512px" height="512px" viewBox="0 0 512 512" version="1.1" xmlns="http://www.w3.org/2000/svg" xmlns:xlink="http://www.w3.org/1999/xlink">
    <!-- Generator: Sketch 48.2 (47327) - http://www.bohemiancoding.com/sketch -->
    <title>rewind-block</title>
    <desc>Created with Sketch.</desc>
    <defs></defs>
    <g id="Page-1" stroke="none" stroke-width="1" fill="none" fill-rule="evenodd">
        <g id="rewind-block" fill-rule="nonzero">
            <circle id="Oval" fill="#4D4D4D" cx="256" cy="256" r="256"></circle>
            <path d="M150.307,361.606 L297.358,508.657 C405.611,491.07 491.073,405.607 508.657,297.353 L361.55,150.247 L150.307,361.606 Z" id="Shape" fill="#333333"></path>
            <path d="M342.052,142.222 L169.95,142.222 C154.637,142.222 142.223,154.636 142.223,169.949 L142.223,342.052 C142.223,357.365 154.637,369.778 169.95,369.778 L342.053,369.778 C357.366,369.778 369.779,357.364 369.779,342.052 L369.779,169.948 C369.778,154.636 357.366,142.222 342.052,142.222 Z" id="Shape" fill="#F8F9F9"></path>
            <path d="M142.222,256 L142.222,342.052 C142.222,357.365 154.636,369.778 169.948,369.778 L342.05,369.778 C357.363,369.778 369.776,357.364 369.776,342.052 L369.776,256 L142.222,256 Z" id="Shape" fill="#DFE5E1"></path>
            <g id="Group" transform="translate(170.000000, 174.000000)" fill="#4D4D4D">
                <path d="M42.844,77.158 L92.677,27.325 C98.716,21.286 98.716,11.494 92.677,5.456 C86.638,-0.583 76.846,-0.583 70.808,5.456 L5.198,71.066 C-0.841,77.105 -0.841,86.897 5.198,92.935 L70.808,158.545 C76.847,164.584 86.639,164.584 92.677,158.545 C98.716,152.506 98.716,142.714 92.677,136.676 L42.844,86.843 C40.17,84.169 40.17,79.831 42.844,77.158 Z" id="Shape"></path>
                <path d="M116.972,77.158 L166.805,27.325 C172.844,21.286 172.844,11.494 166.805,5.456 C160.766,-0.583 150.974,-0.583 144.936,5.456 L79.326,71.066 C73.287,77.105 73.287,86.897 79.326,92.935 L144.936,158.545 C150.975,164.584 160.767,164.584 166.805,158.545 C172.844,152.506 172.844,142.714 166.805,136.676 L116.972,86.843 C114.298,84.169 114.298,79.831 116.972,77.158 Z" id="Shape"></path>
            </g>
            <g id="Group" transform="translate(170.000000, 256.000000)" fill="#333333">
                <path d="M42.844,4.842 C41.506,3.504 40.837,1.753 40.837,-2.84217094e-14 L0.667,-2.84217094e-14 C0.667,3.958 2.177,7.914 5.196,10.935 L70.806,76.545 C76.845,82.584 86.637,82.584 92.675,76.545 C98.714,70.506 98.714,60.714 92.675,54.676 L42.844,4.842 Z" id="Shape"></path>
                <path d="M116.972,4.842 C115.634,3.504 114.965,1.753 114.965,-2.84217094e-14 L74.795,-2.84217094e-14 C74.795,3.958 76.305,7.914 79.324,10.935 L144.934,76.545 C150.973,82.584 160.765,82.584 166.803,76.545 C172.841,70.506 172.842,60.714 166.803,54.676 L116.972,4.842 Z" id="Shape"></path>
            </g>
        </g>
    </g>
</svg>