<?xml version="1.0" encoding="UTF-8" standalone="no"?>
<svg width="512px" height="512px" viewBox="0 0 512 512" version="1.1" xmlns="http://www.w3.org/2000/svg" xmlns:xlink="http://www.w3.org/1999/xlink">
    <!-- Generator: Sketch 48.2 (47327) - http://www.bohemiancoding.com/sketch -->
    <title>search</title>
    <desc>Created with Sketch.</desc>
    <defs></defs>
    <g id="Page-1" stroke="none" stroke-width="1" fill="none" fill-rule="evenodd">
        <g id="search" fill-rule="nonzero">
            <circle id="Oval" fill="#4D4D4D" cx="256" cy="256" r="256"></circle>
            <path d="M343.776,496.552 C413.679,471.038 469.325,415.918 495.573,346.372 L314.844,165.643 L268.643,216.35 L153.146,305.922 L343.776,496.552 Z" id="Shape" fill="#333333"></path>
            <path d="M389.011,389.013 C376.732,401.292 356.821,401.292 344.541,389.013 L255.601,300.073 C243.322,287.794 243.322,267.882 255.601,255.603 C267.88,243.324 287.792,243.324 300.071,255.603 L389.011,344.543 C401.293,356.823 401.293,376.732 389.011,389.013 Z" id="Shape" fill="#DFE5E1"></path>
            <path d="M255.602,300.073 L344.542,389.013 C356.785,401.256 376.61,401.285 388.9,389.115 L255.5,255.716 C243.329,268.004 243.359,287.828 255.602,300.073 Z" id="Shape" fill="#F8F9F9"></path>
            <path d="M288.954,155.546 C252.114,118.706 192.384,118.706 155.544,155.546 C155.508,155.582 155.475,155.62 155.439,155.656 C118.706,192.504 118.739,252.152 155.544,288.955 C192.348,325.76 251.995,325.791 288.843,289.06 C288.879,289.024 288.917,288.993 288.953,288.955 C325.794,252.114 325.794,192.386 288.954,155.546 Z" id="Shape" fill="#4D4D4D"></path>
            <path d="M155.441,155.655 C118.708,192.503 118.741,252.151 155.546,288.954 C192.35,325.759 251.997,325.79 288.845,289.059 L155.441,155.655 Z" id="Shape" fill="#4D4D4D"></path>
            <path d="M222.249,330.723 C194.458,330.723 166.669,320.145 145.513,298.986 C103.198,256.674 103.198,187.827 145.513,145.514 C187.825,103.197 256.672,103.197 298.985,145.514 C341.3,187.826 341.3,256.673 298.985,298.986 C277.83,320.145 250.04,330.723 222.249,330.723 Z M222.249,142.141 C201.726,142.141 181.203,149.954 165.576,165.577 C134.328,196.826 134.328,247.673 165.576,278.924 C196.829,310.172 247.67,310.172 278.923,278.924 C310.171,247.675 310.171,196.828 278.923,165.577 C263.297,149.954 242.772,142.141 222.249,142.141 Z" id="Shape" fill="#DFE5E1"></path>
            <path d="M278.812,279.028 C247.551,310.169 196.792,310.136 165.576,278.923 C134.365,247.708 134.332,196.946 165.471,165.687 L145.41,145.626 C103.204,187.948 103.236,256.713 145.515,298.988 C166.671,320.146 194.46,330.725 222.251,330.725 C249.996,330.725 277.735,320.18 298.877,299.093 L278.812,279.028 Z" id="Shape" fill="#F8F9F9"></path>
        </g>
    </g>
</svg>