<?xml version="1.0" encoding="UTF-8" standalone="no"?>
<svg width="512px" height="512px" viewBox="0 0 512 512" version="1.1" xmlns="http://www.w3.org/2000/svg" xmlns:xlink="http://www.w3.org/1999/xlink">
    <!-- Generator: Sketch 48.2 (47327) - http://www.bohemiancoding.com/sketch -->
    <title>settings</title>
    <desc>Created with Sketch.</desc>
    <defs></defs>
    <g id="Page-1" stroke="none" stroke-width="1" fill="none" fill-rule="evenodd">
        <g id="settings" fill-rule="nonzero">
            <circle id="Oval" fill="#4D4D4D" cx="256" cy="256" r="256"></circle>
            <path d="M504.323,318.409 L302.547,116.631 L287.77,134.103 L237.337,83.67 L143.946,172.679 L113.964,203.227 L167.593,256.856 L148.954,270.223 L243.25,365.171 L281.024,402.294 L268.655,414.142 L349.061,494.548 C425.519,464.701 484.093,399.16 504.323,318.409 Z" id="Shape" fill="#333333"></path>
            <path d="M317.381,167.983 L306.726,167.983 C304.575,157.703 300.641,148.082 295.271,139.444 L302.546,132.169 C306.837,127.878 306.837,120.922 302.546,116.631 L290.568,104.653 C286.277,100.362 279.321,100.362 275.03,104.653 L268.009,111.674 C259.334,106.052 249.622,101.905 239.216,99.579 L239.216,89.818 C239.216,83.75 234.298,78.832 228.23,78.832 L211.29,78.832 C205.222,78.832 200.304,83.75 200.304,89.818 L200.304,99.579 C189.898,101.905 180.186,106.051 171.511,111.674 L164.49,104.653 C160.199,100.362 153.243,100.362 148.952,104.653 L136.974,116.631 C132.683,120.922 132.683,127.878 136.974,132.169 L144.249,139.444 C138.879,148.082 134.945,157.704 132.794,167.983 L122.14,167.983 C116.072,167.983 111.154,172.901 111.154,178.969 L111.154,195.908 C111.154,201.976 116.072,206.894 122.14,206.894 L133.33,206.894 C135.699,216.862 139.745,226.174 145.156,234.525 L136.974,242.707 C132.683,246.998 132.683,253.954 136.974,258.245 L148.952,270.223 C153.243,274.514 160.199,274.514 164.49,270.223 L172.927,261.786 C181.238,266.951 190.463,270.773 200.304,272.972 L200.304,285.057 C200.304,291.125 205.222,296.043 211.29,296.043 L228.229,296.043 C234.297,296.043 239.215,291.125 239.215,285.057 L239.215,272.972 C249.057,270.772 258.281,266.95 266.592,261.786 L275.029,270.223 C279.32,274.514 286.276,274.514 290.567,270.223 L302.545,258.245 C306.836,253.954 306.836,246.998 302.545,242.707 L294.363,234.525 C299.776,226.174 303.82,216.862 306.189,206.894 L317.381,206.894 C323.449,206.894 328.367,201.976 328.367,195.908 L328.367,178.969 C328.368,172.901 323.45,167.983 317.381,167.983 Z M219.762,223.737 C199.073,223.737 182.302,206.965 182.302,186.277 C182.302,165.589 199.074,148.817 219.762,148.817 C240.451,148.817 257.222,165.589 257.222,186.277 C257.222,206.965 240.45,223.737 219.762,223.737 Z" id="Shape" fill="#DC755E"></path>
            <path d="M317.381,167.983 L306.726,167.983 C304.575,157.703 300.641,148.082 295.271,139.444 L302.546,132.169 C306.837,127.878 306.837,120.922 302.546,116.631 L290.568,104.653 C286.277,100.362 279.321,100.362 275.03,104.653 L268.009,111.674 C259.334,106.052 249.622,101.905 239.216,99.579 L239.216,89.818 C239.216,83.75 234.298,78.832 228.23,78.832 L219.223,78.832 L219.223,148.829 C219.402,148.827 219.58,148.815 219.761,148.815 C240.45,148.815 257.221,165.587 257.221,186.275 C257.221,206.964 240.449,223.735 219.761,223.735 C219.58,223.735 219.402,223.725 219.223,223.721 L219.223,296.042 L228.23,296.042 C234.298,296.042 239.216,291.122 239.216,285.056 L239.216,272.971 C249.058,270.771 258.282,266.949 266.593,261.785 L275.03,270.222 C279.321,274.513 286.277,274.513 290.568,270.222 L302.546,258.244 C306.837,253.953 306.837,246.997 302.546,242.706 L294.364,234.524 C299.777,226.173 303.821,216.861 306.19,206.893 L317.382,206.893 C323.45,206.893 328.368,201.975 328.368,195.907 L328.368,178.968 C328.368,172.901 323.45,167.983 317.381,167.983 Z" id="Shape" fill="#D5573B"></path>
            <path d="M392.749,338.815 L384.898,338.815 C383.312,331.24 380.414,324.153 376.458,317.789 L381.818,312.429 C384.98,309.267 384.98,304.142 381.818,300.982 L372.993,292.157 C369.831,288.995 364.706,288.995 361.546,292.157 L356.373,297.33 C349.981,293.187 342.827,290.133 335.159,288.419 L335.159,281.227 C335.159,276.757 331.535,273.132 327.064,273.132 L314.583,273.132 C310.113,273.132 306.488,276.756 306.488,281.227 L306.488,288.419 C298.822,290.133 291.666,293.187 285.274,297.33 L280.101,292.157 C276.939,288.995 271.814,288.995 268.653,292.157 L259.828,300.982 C256.666,304.144 256.666,309.269 259.828,312.429 L265.188,317.789 C261.232,324.154 258.334,331.242 256.748,338.815 L248.897,338.815 C244.427,338.815 240.802,342.439 240.802,346.91 L240.802,359.391 C240.802,363.861 244.426,367.486 248.897,367.486 L257.142,367.486 C258.888,374.83 261.867,381.691 265.855,387.844 L259.827,393.872 C256.665,397.034 256.665,402.159 259.827,405.319 L268.652,414.144 C271.814,417.306 276.939,417.306 280.1,414.144 L286.316,407.928 C292.439,411.734 299.235,414.55 306.487,416.17 L306.487,425.074 C306.487,429.544 310.111,433.169 314.582,433.169 L327.063,433.169 C331.533,433.169 335.158,429.545 335.158,425.074 L335.158,416.17 C342.409,414.55 349.206,411.733 355.329,407.928 L361.545,414.144 C364.707,417.306 369.832,417.306 372.992,414.144 L381.817,405.319 C384.979,402.157 384.979,397.032 381.817,393.872 L375.789,387.844 C379.776,381.691 382.757,374.83 384.502,367.486 L392.747,367.486 C397.217,367.486 400.842,363.862 400.842,359.391 L400.842,346.91 C400.844,342.438 397.221,338.815 392.749,338.815 Z M320.826,379.894 C305.583,379.894 293.226,367.537 293.226,352.294 C293.226,337.051 305.583,324.694 320.826,324.694 C336.069,324.694 348.426,337.051 348.426,352.294 C348.426,367.537 336.069,379.894 320.826,379.894 Z" id="Shape" fill="#F8F9F9"></path>
            <path d="M392.749,338.815 L384.898,338.815 C383.312,331.24 380.414,324.153 376.458,317.789 L381.818,312.429 C384.98,309.269 384.98,304.142 381.818,300.982 L372.993,292.157 C369.831,288.995 364.706,288.995 361.545,292.157 L356.372,297.33 C349.981,293.187 342.826,290.133 335.158,288.419 L335.158,281.227 C335.158,276.757 331.534,273.133 327.064,273.133 L320.07,273.133 L320.07,324.733 C320.323,324.726 320.568,324.695 320.823,324.695 C336.066,324.695 348.423,337.052 348.423,352.295 C348.423,367.538 336.066,379.895 320.823,379.895 C320.568,379.895 320.323,379.864 320.07,379.857 L320.07,433.169 L327.064,433.169 C331.534,433.169 335.158,429.545 335.158,425.074 L335.158,416.17 C342.409,414.55 349.206,411.734 355.329,407.928 L361.545,414.144 C364.707,417.304 369.832,417.304 372.993,414.144 L381.818,405.319 C384.98,402.157 384.98,397.032 381.818,393.871 L375.79,387.843 C379.777,381.69 382.758,374.829 384.503,367.485 L392.748,367.485 C397.218,367.485 400.842,363.861 400.842,359.39 L400.842,346.909 C400.844,342.438 397.221,338.815 392.749,338.815 Z" id="Shape" fill="#DFE5E1"></path>
        </g>
    </g>
</svg>