<?xml version="1.0" encoding="UTF-8" standalone="no"?>
<svg width="512px" height="512px" viewBox="0 0 512 512" version="1.1" xmlns="http://www.w3.org/2000/svg" xmlns:xlink="http://www.w3.org/1999/xlink">
    <!-- Generator: Sketch 48.2 (47327) - http://www.bohemiancoding.com/sketch -->
    <title>stars</title>
    <desc>Created with Sketch.</desc>
    <defs></defs>
    <g id="Page-1" stroke="none" stroke-width="1" fill="none" fill-rule="evenodd">
        <g id="stars" fill-rule="nonzero">
            <circle id="Oval" fill="#4D4D4D" cx="256" cy="256" r="256"></circle>
            <path d="M510.462,284.069 L367.144,140.751 L350.586,154.586 L256,60 L264.9,144.723 L144.856,140.751 L226.936,222.831 L187.309,271.408 L218.81,302.909 L209.221,309.929 L147.856,248.564 L102.544,388.022 L224.604,510.083 C234.895,511.34 245.37,512 256,512 C387.898,512 496.481,412.246 510.462,284.069 Z" id="Shape" fill="#333333"></path>
            <polygon id="Shape" fill="#F8F9F9" points="147.856 248.564 170.512 294.47 221.173 301.832 184.515 337.565 193.169 388.021 147.856 364.199 102.544 388.021 111.198 337.565 74.539 301.832 125.2 294.47"></polygon>
            <polygon id="Shape" fill="#DFE5E1" points="364.144 248.564 341.488 294.47 290.827 301.832 327.485 337.565 318.831 388.021 364.144 364.199 409.456 388.021 400.802 337.565 437.461 301.832 386.8 294.47"></polygon>
            <polygon id="Shape" fill="#F8F9F9" points="256 60 290.345 129.591 367.144 140.751 311.572 194.92 324.691 271.408 256 235.295 187.309 271.408 200.428 194.92 144.856 140.751 221.655 129.591"></polygon>
            <polygon id="Shape" fill="#DFE5E1" points="256 235.295 324.691 271.408 311.572 194.92 367.144 140.751 290.345 129.591 256 60"></polygon>
        </g>
    </g>
</svg>