<?xml version="1.0" encoding="UTF-8" standalone="no"?>
<svg width="512px" height="512px" viewBox="0 0 512 512" version="1.1" xmlns="http://www.w3.org/2000/svg" xmlns:xlink="http://www.w3.org/1999/xlink">
    <!-- Generator: Sketch 48.2 (47327) - http://www.bohemiancoding.com/sketch -->
    <title>tag</title>
    <desc>Created with Sketch.</desc>
    <defs></defs>
    <g id="Page-1" stroke="none" stroke-width="1" fill="none" fill-rule="evenodd">
        <g id="tag" fill-rule="nonzero">
            <circle id="Oval" fill="#4D4D4D" cx="256" cy="256" r="256"></circle>
            <path d="M512,256 C512,251.761 511.891,247.548 511.688,243.359 L388.194,119.865 L307.66,130.869 L212.38,282.566 L180.084,385.992 L301.97,507.875 C421.414,486.219 512,381.692 512,256 Z" id="Shape" fill="#333333"></path>
            <path d="M397.36,198.003 L397.36,141.137 C397.36,124.963 384.248,111.851 368.074,111.851 L311.208,111.851 C303.44,111.851 295.991,114.937 290.499,120.429 L123.218,287.71 C111.782,299.146 111.782,317.69 123.218,329.127 L180.084,385.993 C191.52,397.429 210.064,397.429 221.501,385.993 L388.782,218.712 C394.274,213.22 397.36,205.771 397.36,198.003 Z M336.305,172.904 C329.725,166.324 329.725,155.656 336.305,149.078 C342.885,142.5 353.553,142.498 360.131,149.078 C366.711,155.658 366.711,166.326 360.131,172.904 C353.552,179.484 342.885,179.484 336.305,172.904 Z" id="Shape" fill="#F8F9F9"></path>
            <path d="M388.782,120.429 L360.131,149.08 C366.709,155.66 366.709,166.328 360.131,172.906 C353.551,179.486 342.885,179.486 336.305,172.906 L151.65,357.559 L180.082,385.991 C191.518,397.427 210.062,397.427 221.499,385.991 L388.78,218.71 C394.272,213.218 397.358,205.769 397.358,198.001 L397.358,141.136 C397.36,133.049 394.081,125.728 388.782,120.429 Z" id="Shape" fill="#DFE5E1"></path>
            <rect id="Rectangle-path" fill="#DC755E" transform="translate(237.648390, 271.552394) rotate(-135.000000) translate(-237.648390, -271.552394) " x="202.903723" y="184.686227" width="69.4893336" height="173.732334"></rect>
            <rect id="Rectangle-path" fill="#D5573B" transform="translate(249.929697, 283.856509) rotate(45.000000) translate(-249.929697, -283.856509) " x="232.552864" y="196.990342" width="34.7536667" height="173.732334"></rect>
        </g>
    </g>
</svg>