<?xml version="1.0" encoding="UTF-8" standalone="no"?>
<svg width="512px" height="512px" viewBox="0 0 512 512" version="1.1" xmlns="http://www.w3.org/2000/svg" xmlns:xlink="http://www.w3.org/1999/xlink">
    <!-- Generator: Sketch 48.2 (47327) - http://www.bohemiancoding.com/sketch -->
    <title>text</title>
    <desc>Created with Sketch.</desc>
    <defs></defs>
    <g id="Page-1" stroke="none" stroke-width="1" fill="none" fill-rule="evenodd">
        <g id="text" fill-rule="nonzero">
            <circle id="Oval" fill="#4D4D4D" cx="256" cy="256" r="256"></circle>
            <path d="M505.025,315.535 L399.929,210.437 L368.33,232.413 L358.107,229.279 L320.612,227.662 L292.938,235.726 L188.599,131.387 L126.563,261.745 L124.184,267.553 L91.416,332.563 L270.438,511.585 C384.886,505.223 479.263,423.688 505.025,315.535 Z" id="Shape" fill="#333333"></path>
            <path d="M271.713,321.534 L192.256,136.137 C190.355,131.701 185.991,128.824 181.164,128.824 C176.337,128.824 171.974,131.701 170.072,136.137 L90.619,321.534 C87.993,327.661 90.831,334.755 96.956,337.378 C103.084,340.005 110.178,337.168 112.8,331.041 L143.718,258.897 L218.611,258.897 L249.529,331.041 C251.489,335.616 255.944,338.357 260.626,338.357 C262.212,338.357 263.824,338.042 265.375,337.378 C271.501,334.755 274.341,327.659 271.713,321.534 Z M154.064,234.765 L181.167,171.525 L208.27,234.765 L154.064,234.765 Z" id="Shape" fill="#F8F9F9"></path>
            <path d="M271.713,321.534 L192.256,136.137 C190.355,131.701 185.991,128.824 181.164,128.824 C181.136,128.824 181.109,128.829 181.08,128.831 L181.08,171.724 L181.164,171.527 L208.267,234.767 L181.079,234.767 L181.079,258.902 L218.61,258.902 L249.528,331.046 C251.488,335.621 255.943,338.362 260.625,338.362 C262.211,338.362 263.823,338.047 265.374,337.383 C271.501,334.755 274.341,327.659 271.713,321.534 Z" id="Shape" fill="#DFE5E1"></path>
            <path d="M393.051,208.279 C386.386,208.279 380.984,213.682 380.984,220.346 L380.984,222.801 C369.801,213.728 355.568,208.279 340.079,208.279 C304.217,208.279 275.041,237.456 275.041,273.319 C275.041,309.182 304.216,338.357 340.079,338.357 C355.567,338.357 369.801,332.908 380.984,323.835 L380.984,326.29 C380.984,332.955 386.387,338.357 393.051,338.357 C399.715,338.357 405.118,332.954 405.118,326.29 L405.118,220.348 C405.118,213.682 399.715,208.279 393.051,208.279 Z M340.078,314.22 C317.524,314.22 299.175,295.871 299.175,273.317 C299.175,250.763 317.524,232.412 340.078,232.412 C362.632,232.412 380.983,250.765 380.983,273.319 C380.983,295.873 362.632,314.22 340.078,314.22 Z" id="Shape" fill="#DC755E"></path>
            <path d="M393.051,208.279 C386.386,208.279 380.984,213.682 380.984,220.346 L380.984,222.801 C369.801,213.728 355.568,208.279 340.079,208.279 C339.922,208.279 339.767,208.289 339.61,208.291 L339.61,232.426 C339.767,232.424 339.922,232.414 340.079,232.414 C362.633,232.414 380.984,250.765 380.984,273.319 C380.984,295.873 362.633,314.222 340.079,314.222 C339.922,314.222 339.767,314.212 339.61,314.21 L339.61,338.345 C339.767,338.347 339.922,338.357 340.079,338.357 C355.567,338.357 369.801,332.908 380.984,323.835 L380.984,326.29 C380.984,332.955 386.387,338.357 393.051,338.357 C399.715,338.357 405.118,332.954 405.118,326.29 L405.118,220.348 C405.118,213.682 399.715,208.279 393.051,208.279 Z" id="Shape" fill="#D5573B"></path>
        </g>
    </g>
</svg>