<?xml version="1.0" encoding="UTF-8" standalone="no"?>
<svg width="512px" height="512px" viewBox="0 0 512 512" version="1.1" xmlns="http://www.w3.org/2000/svg" xmlns:xlink="http://www.w3.org/1999/xlink">
    <!-- Generator: Sketch 48.2 (47327) - http://www.bohemiancoding.com/sketch -->
    <title>trash-can</title>
    <desc>Created with Sketch.</desc>
    <defs></defs>
    <g id="Page-1" stroke="none" stroke-width="1" fill="none" fill-rule="evenodd">
        <g id="trash-can" fill-rule="nonzero">
            <circle id="Oval" fill="#4D4D4D" cx="256" cy="256" r="256"></circle>
            <g id="Group" transform="translate(141.000000, 97.000000)" fill="#333333">
                <polygon id="Shape" points="0.36 93.919 30.818 124.377 29.38 78.12"></polygon>
                <path d="M126.766,414.721 C255.58,408.892 359.581,307.875 370.107,180.339 L224.158,34.387 L211.048,51.319 L160.443,0.883 L144.307,137.165 L160.581,153.439 L22.771,310.724 L126.766,414.721 Z" id="Shape"></path>
            </g>
            <path d="M297.153,156.898 L214.847,156.898 C211.99,156.898 209.675,154.583 209.675,151.726 L209.675,100.774 C209.675,97.917 211.99,95.602 214.847,95.602 L297.153,95.602 C300.01,95.602 302.325,97.917 302.325,100.774 L302.325,151.726 C302.325,154.583 300.01,156.898 297.153,156.898 Z M220.019,146.554 L291.982,146.554 L291.982,105.946 L220.019,105.946 L220.019,146.554 Z" id="Shape" fill="#DC755E"></path>
            <path d="M297.153,95.603 L256,95.603 L256,105.946 L291.981,105.946 L291.981,146.554 L256,146.554 L256,156.897 L297.153,156.897 C300.01,156.897 302.325,154.582 302.325,151.725 L302.325,100.773 C302.325,97.918 300.01,95.603 297.153,95.603 Z" id="Shape" fill="#D5573B"></path>
            <path d="M182.844,417.259 L329.154,417.259 C342.325,417.259 353.001,406.583 353.001,393.41 L353.001,158.584 L158.998,158.584 L158.998,393.411 C158.998,406.581 169.674,417.259 182.844,417.259 Z" id="Shape" fill="#DC755E"></path>
            <path d="M256,158.584 L256,417.258 L329.154,417.258 C342.325,417.258 353.001,406.582 353.001,393.411 L353.001,158.584 L256,158.584 Z" id="Shape" fill="#D5573B"></path>
            <path d="M370.64,190.919 L141.36,190.919 L141.36,144.351 C141.36,134.354 149.464,126.25 159.461,126.25 L352.538,126.25 C362.535,126.25 370.639,134.354 370.639,144.351 L370.64,190.919 Z" id="Shape" fill="#F8F9F9"></path>
            <path d="M370.64,144.351 C370.64,134.354 362.536,126.25 352.539,126.25 L256,126.25 L256,190.919 L370.64,190.919 L370.64,144.351 Z" id="Shape" fill="#DFE5E1"></path>
            <path d="M223.666,417.259 L191.332,417.259 L191.332,237.475 C191.332,229.621 197.7,223.253 205.554,223.253 L209.443,223.253 C217.297,223.253 223.665,229.621 223.665,237.475 L223.665,417.259 L223.666,417.259 Z" id="Shape" fill="#F8F9F9"></path>
            <path d="M320.669,417.259 L288.335,417.259 L288.335,237.475 C288.335,229.621 294.703,223.253 302.557,223.253 L306.446,223.253 C314.3,223.253 320.668,229.621 320.668,237.475 L320.668,417.259 L320.669,417.259 Z" id="Shape" fill="#DFE5E1"></path>
            <path d="M272.167,417.259 L239.833,417.259 L239.833,237.475 C239.833,229.621 246.201,223.253 254.055,223.253 L257.944,223.253 C265.798,223.253 272.166,229.621 272.166,237.475 L272.166,417.259 L272.167,417.259 Z" id="Shape" fill="#F8F9F9"></path>
            <path d="M272.167,237.475 C272.167,229.621 265.799,223.253 257.945,223.253 L256,223.253 L256,417.258 L272.167,417.258 L272.167,237.475 Z" id="Shape" fill="#DFE5E1"></path>
        </g>
    </g>
</svg>