<?xml version="1.0" encoding="UTF-8" standalone="no"?>
<svg width="512px" height="512px" viewBox="0 0 512 512" version="1.1" xmlns="http://www.w3.org/2000/svg" xmlns:xlink="http://www.w3.org/1999/xlink">
    <!-- Generator: Sketch 48.2 (47327) - http://www.bohemiancoding.com/sketch -->
    <title>unfav</title>
    <desc>Created with Sketch.</desc>
    <defs></defs>
    <g id="Page-1" stroke="none" stroke-width="1" fill="none" fill-rule="evenodd">
        <g id="unfav" fill-rule="nonzero">
            <circle id="Oval" fill="#4D4D4D" cx="256" cy="256" r="256"></circle>
            <path d="M512,256 C512,250.285 511.793,244.62 511.424,238.998 L366.578,94.152 L147.31,419.917 L238.805,511.412 C244.49,511.789 250.22,512 256,512 C397.385,512 512,397.385 512,256 Z" id="Shape" fill="#333333"></path>
            <path d="M335.951,432 L176.049,432 C153.823,432 135.805,413.982 135.805,391.756 L135.805,120.244 C135.805,98.018 153.823,80 176.049,80 L335.951,80 C358.177,80 376.195,98.018 376.195,120.244 L376.195,391.756 C376.195,413.982 358.177,432 335.951,432 Z" id="Shape" fill="#F8F9F9"></path>
            <path d="M335.951,80 L255.952,80 L255.952,432 L335.951,432 C358.177,432 376.195,413.982 376.195,391.756 L376.195,120.244 C376.195,98.018 358.177,80 335.951,80 Z" id="Shape" fill="#DFE5E1"></path>
            <path d="M169.452,224.5 C169.452,200.199 189.151,180.5 213.452,180.5 C233.809,180.5 250.929,194.327 255.952,213.1 C260.975,194.328 278.095,180.5 298.452,180.5 C322.753,180.5 342.452,200.199 342.452,224.5 C342.452,287.5 255.952,331.5 255.952,331.5 C255.952,331.5 169.452,287.5 169.452,224.5 Z" id="Shape" fill="#4D4D4D"></path>
            <path d="M255.952,331.5 C255.952,331.5 342.452,287.5 342.452,224.5 C342.452,200.199 322.753,180.5 298.452,180.5 C278.095,180.5 260.975,194.327 255.952,213.1 L255.952,331.5 Z" id="Shape" fill="#333333"></path>
        </g>
    </g>
</svg>