<?xml version="1.0" encoding="UTF-8" standalone="no"?>
<svg width="512px" height="512px" viewBox="0 0 512 512" version="1.1" xmlns="http://www.w3.org/2000/svg" xmlns:xlink="http://www.w3.org/1999/xlink">
    <!-- Generator: Sketch 48.2 (47327) - http://www.bohemiancoding.com/sketch -->
    <title>user</title>
    <desc>Created with Sketch.</desc>
    <defs></defs>
    <g id="Page-1" stroke="none" stroke-width="1" fill="none" fill-rule="evenodd">
        <g id="user" fill-rule="nonzero">
            <circle id="Oval" fill="#4D4D4D" cx="256" cy="256" r="256"></circle>
            <path d="M300,508 C397,487 471.713,428.044 501.224,329.659 L303.852,132.287 L279.129,202.369 L142,341 L300,508 Z" id="Shape" fill="#333333"></path>
            <path d="M142,341.779999 C142,278.940588 194.256985,228 258.72028,228 C323.183575,228 375.440559,278.940588 375.440559,341.779999 L142,341.779999 Z" id="Shape" fill="#DC755E"></path>
            <path d="M256.049944,227.523362 C256.032464,227.523362 256.014983,227.525727 256,227.525727 L256,342.098583 L377,342.098583 C376.997503,278.821286 322.84542,227.523362 256.049944,227.523362 Z" id="Shape" fill="#D5573B"></path>
            <circle id="Oval" fill="#F8F9F9" cx="256.110001" cy="185.110001" r="71.1100006"></circle>
            <path d="M256.051387,114 C256.033402,114 256.015416,114.002569 256,114.002569 L256,256.220001 C256.017986,256.220001 256.035971,256.220001 256.051387,256.220001 C295.324272,256.220001 327.162673,224.38417 327.162673,185.108716 C327.160103,145.838401 295.324272,114 256.051387,114 Z" id="Shape" fill="#DFE5E1"></path>
        </g>
    </g>
</svg>